<svg xmlns="http://www.w3.org/2000/svg" width="242.31" height="126.64" viewBox="0 0 242.31 126.64"><defs><style>.a{fill:#58595b;}.a,.c,.d,.e,.f,.g,.h,.i,.j,.k{fill-rule:evenodd;}.b{fill:#bbbdbf;}.c{fill:#33b39c;}.d{fill:#2c9f9f;}.e{fill:#e6e7e8;}.f{fill:#808184;}.g{fill:#c0c1c3;}.h{fill:#9c9ea1;}.i{fill:#454547;}.j{fill:#ce3e32;}.k{fill:#ef503d;}</style></defs><title>left-spaceship</title><path class="a" d="M218.56,74c-3.66,1-6.16,3.51-5.58,5.66a2.5,2.5,0,0,0,.57,1l12.7-3.4a2.61,2.61,0,0,0,0-1.18C225.65,74,222.22,73.06,218.56,74Z"/><ellipse class="b" cx="118.51" cy="43.3" rx="69.56" ry="40.78" transform="translate(-7.17 32.15) rotate(-15)"/><path class="c" d="M186.22,35.73c-2.92,19-25.86,38.57-57.16,47s-60.95,2.89-73-12.09Z"/><path class="d" d="M171.93,43.27c-2.25,14.53-19.82,29.54-43.79,36S81.44,81.45,72.23,70Z"/><path class="e" d="M109.23,8.66c32.63-8.74,63.24-.32,68.36,18.81A22.52,22.52,0,0,1,177.8,38L64.51,68.35a22.57,22.57,0,0,1-5.09-9.22C54.3,40,76.6,17.41,109.23,8.66Z"/><path class="f" d="M116.55,36c66.86-17.91,123.12-24.74,125.67-15.24s-49.6,31.72-116.46,49.64S2.63,95.11.09,85.61,49.68,53.89,116.55,36Z"/><path class="a" d="M238,21.87c2.05,7.66-48.58,27.89-113.1,45.18S6.39,92.13,4.34,84.47Z"/><path class="f" d="M100.33,65.67a8.58,8.58,0,1,0-10.1-6.16A8.39,8.39,0,0,0,100.33,65.67Z"/><path class="g" d="M95.9,49.12a8.16,8.16,0,1,0,10,5.77A8.15,8.15,0,0,0,95.9,49.12Z"/><path class="h" d="M99.56,64.43a7,7,0,1,0-8.59-5A7,7,0,0,0,99.56,64.43Z"/><path class="a" d="M99.82,63.77a7,7,0,1,0-8.58-5A7,7,0,0,0,99.82,63.77Z"/><path class="i" d="M97.07,52.88a4.77,4.77,0,1,0,6.11,3.3A4.92,4.92,0,0,0,97.07,52.88Z"/><path class="j" d="M96.85,52.67a4.49,4.49,0,1,0,5.75,3.1A4.62,4.62,0,0,0,96.85,52.67Z"/><path class="k" d="M94.9,57.17a2.35,2.35,0,0,0,.09.64,3.13,3.13,0,0,0,6-1.62,2.84,2.84,0,0,0-2-2,3.09,3.09,0,0,1-2.36,3A3.35,3.35,0,0,1,94.9,57.17Z"/><path class="k" d="M96.13,53.68a1.17,1.17,0,1,0,1.52.8A1.22,1.22,0,0,0,96.13,53.68Z"/><path class="f" d="M119.62,60.5a8.58,8.58,0,1,0-10.1-6.16A8.38,8.38,0,0,0,119.62,60.5Z"/><path class="g" d="M115.19,44a8.16,8.16,0,1,0,10,5.77A8.15,8.15,0,0,0,115.19,44Z"/><path class="h" d="M118.85,59.26a7,7,0,1,0-8.58-5A7,7,0,0,0,118.85,59.26Z"/><path class="a" d="M119.11,58.6a7,7,0,1,0-8.58-5A7,7,0,0,0,119.11,58.6Z"/><path class="i" d="M116.36,47.71a4.77,4.77,0,1,0,6.12,3.3A4.92,4.92,0,0,0,116.36,47.71Z"/><path class="j" d="M116.14,47.5a4.49,4.49,0,1,0,5.75,3.1A4.62,4.62,0,0,0,116.14,47.5Z"/><path class="k" d="M114.19,52a2.35,2.35,0,0,0,.09.64,3.13,3.13,0,0,0,6-1.62,2.87,2.87,0,0,0-2-2A3.09,3.09,0,0,1,116,52,3.25,3.25,0,0,1,114.19,52Z"/><path class="k" d="M115.42,48.51a1.17,1.17,0,1,0,1.52.8A1.22,1.22,0,0,0,115.42,48.51Z"/><path class="f" d="M138.91,55.33a8.58,8.58,0,0,0-4.43-16.55,8.58,8.58,0,0,0,4.43,16.55Z"/><path class="g" d="M134.48,38.78a8.16,8.16,0,1,0,10,5.77A8.16,8.16,0,0,0,134.48,38.78Z"/><path class="h" d="M138.14,54.09a7,7,0,1,0-8.58-5A7,7,0,0,0,138.14,54.09Z"/><path class="a" d="M138.4,53.43a7,7,0,1,0-8.58-5A7,7,0,0,0,138.4,53.43Z"/><path class="i" d="M135.65,42.54a4.78,4.78,0,1,0,6.12,3.3A4.92,4.92,0,0,0,135.65,42.54Z"/><path class="j" d="M135.43,42.33a4.49,4.49,0,1,0,5.75,3.1A4.62,4.62,0,0,0,135.43,42.33Z"/><path class="k" d="M133.48,46.83a2.82,2.82,0,0,0,.09.64,3.13,3.13,0,0,0,6-1.62,2.89,2.89,0,0,0-2-2,3.09,3.09,0,0,1-2.36,3A3.25,3.25,0,0,1,133.48,46.83Z"/><path class="k" d="M134.71,43.34a1.17,1.17,0,1,0,1.52.8A1.22,1.22,0,0,0,134.71,43.34Z"/><polygon class="a" points="47.93 86.22 46.28 122.87 48.6 122.25 53.66 85.51 47.93 86.22"/><polygon class="f" points="49 88.95 47.83 118.07 51.89 88.59 49 88.95"/><path class="a" d="M47.23,120c3.66-1,7.09,0,7.67,2.1a2.61,2.61,0,0,1,0,1.18l-12.7,3.41a2.54,2.54,0,0,1-.57-1C41.07,123.46,43.57,120.93,47.23,120Z"/><path class="f" d="M47.55,121.13c2.63-.71,5-.36,5.3.77a1,1,0,0,1,0,.63L43.69,125a1,1,0,0,1-.35-.53C43,123.32,44.92,121.83,47.55,121.13Z"/><polygon class="a" points="201.09 45.18 220.84 76.1 218.53 76.72 195.78 47.43 201.09 45.18"/><polygon class="f" points="201.53 48.08 217.1 72.72 198.85 49.21 201.53 48.08"/><path class="f" d="M218.88,75.22c-2.63.7-4.51,2.19-4.21,3.32a1,1,0,0,0,.35.53l9.12-2.45a1,1,0,0,0,0-.63C223.88,74.86,221.51,74.52,218.88,75.22Z"/></svg>