<svg xmlns="http://www.w3.org/2000/svg" width="242.31" height="126.64" viewBox="0 0 242.31 126.64"><defs><style>.a{fill:#58595b;}.a,.c,.d,.e,.f,.g,.h,.i,.j,.k{fill-rule:evenodd;}.b{fill:#bbbdbf;}.c{fill:#33b39c;}.d{fill:#2c9f9f;}.e{fill:#e6e7e8;}.f{fill:#808184;}.g{fill:#c0c1c3;}.h{fill:#9c9ea1;}.i{fill:#454547;}.j{fill:#ce3e32;}.k{fill:#ef503d;}</style></defs><title>right-spaceship</title><path class="a" d="M195.08,120c-3.66-1-7.09,0-7.67,2.1a2.61,2.61,0,0,0,0,1.18l12.7,3.41a2.54,2.54,0,0,0,.57-1C201.23,123.46,198.73,120.93,195.08,120Z"/><ellipse class="b" cx="123.8" cy="43.3" rx="40.78" ry="69.56" transform="translate(49.93 151.67) rotate(-75)"/><path class="c" d="M186.22,70.6c-12,15-41.68,20.47-73,12.09s-54.23-28-57.15-47Z"/><path class="d" d="M170.07,70c-9.21,11.47-31.93,15.68-55.9,9.26s-41.55-21.44-43.79-36Z"/><path class="e" d="M133.08,8.66C165.71,17.41,188,40,182.88,59.13a22.55,22.55,0,0,1-5.08,9.22L64.51,38a22.38,22.38,0,0,1,.2-10.52C69.84,8.34,100.45-.08,133.08,8.66Z"/><path class="f" d="M125.76,36c66.86,17.92,119,40.14,116.46,49.64s-58.81,2.67-125.67-15.24S-2.46,30.23.09,20.73,58.9,18.06,125.76,36Z"/><path class="a" d="M238,84.47c-2.06,7.66-56-.14-120.53-17.42S2.29,29.53,4.34,21.87Z"/><path class="f" d="M96.87,53.58A8.58,8.58,0,1,0,91.21,43.2,8.38,8.38,0,0,0,96.87,53.58Z"/><path class="g" d="M101.3,37a8.16,8.16,0,1,0,5.77,10A8.17,8.17,0,0,0,101.3,37Z"/><path class="h" d="M96.82,52.12a7,7,0,1,0-5-8.58A7,7,0,0,0,96.82,52.12Z"/><path class="a" d="M97.38,51.68a7,7,0,1,0-5-8.58A7,7,0,0,0,97.38,51.68Z"/><path class="i" d="M100.44,40.88a4.77,4.77,0,1,0,3.65,5.91A4.91,4.91,0,0,0,100.44,40.88Z"/><path class="j" d="M100.35,40.59a4.49,4.49,0,1,0,3.43,5.55A4.62,4.62,0,0,0,100.35,40.59Z"/><path class="k" d="M96.41,43.51a2.69,2.69,0,0,0-.24.6,3.13,3.13,0,0,0,6,1.61,2.88,2.88,0,0,0-.73-2.71A3.08,3.08,0,0,1,98,44.41,3.27,3.27,0,0,1,96.41,43.51Z"/><path class="k" d="M99.23,41.1a1.17,1.17,0,1,0,.91,1.45A1.22,1.22,0,0,0,99.23,41.1Z"/><path class="f" d="M116.16,58.75a8.58,8.58,0,1,0-5.66-10.38A8.38,8.38,0,0,0,116.16,58.75Z"/><path class="g" d="M120.59,42.2a8.16,8.16,0,1,0,5.77,10A8.17,8.17,0,0,0,120.59,42.2Z"/><path class="h" d="M116.11,57.29a7,7,0,1,0-5-8.58A7,7,0,0,0,116.11,57.29Z"/><path class="a" d="M116.67,56.85a7,7,0,1,0-5-8.58A7,7,0,0,0,116.67,56.85Z"/><path class="i" d="M119.73,46.05A4.77,4.77,0,1,0,123.38,52,4.91,4.91,0,0,0,119.73,46.05Z"/><path class="j" d="M119.64,45.76a4.49,4.49,0,1,0,3.43,5.55A4.62,4.62,0,0,0,119.64,45.76Z"/><path class="k" d="M115.7,48.68a2.34,2.34,0,0,0-.23.59,3.13,3.13,0,0,0,6,1.62,2.88,2.88,0,0,0-.73-2.71,3.08,3.08,0,0,1-3.53,1.4A3.35,3.35,0,0,1,115.7,48.68Z"/><path class="k" d="M118.52,46.27a1.17,1.17,0,1,0-.6,2.26,1.17,1.17,0,1,0,.6-2.26Z"/><path class="f" d="M135.45,63.92a8.58,8.58,0,1,0-5.66-10.38A8.38,8.38,0,0,0,135.45,63.92Z"/><path class="g" d="M139.89,47.37a8.16,8.16,0,1,0,5.76,10A8.17,8.17,0,0,0,139.89,47.37Z"/><path class="h" d="M135.4,62.46a7,7,0,1,0-5-8.58A7,7,0,0,0,135.4,62.46Z"/><path class="a" d="M136,62a7,7,0,1,0-5-8.58A7,7,0,0,0,136,62Z"/><path class="i" d="M139,51.22a4.77,4.77,0,1,0,3.65,5.91A4.91,4.91,0,0,0,139,51.22Z"/><path class="j" d="M138.93,50.92a4.49,4.49,0,1,0,3.43,5.56A4.63,4.63,0,0,0,138.93,50.92Z"/><path class="k" d="M135,53.84a2.22,2.22,0,0,0-.24.6,3.13,3.13,0,0,0,6,1.62,2.88,2.88,0,0,0-.73-2.71,3.09,3.09,0,0,1-3.53,1.4A3.21,3.21,0,0,1,135,53.84Z"/><path class="k" d="M137.81,51.44a1.17,1.17,0,1,0,.91,1.45A1.21,1.21,0,0,0,137.81,51.44Z"/><polygon class="a" points="41.21 45.18 21.46 76.1 23.78 76.72 46.53 47.43 41.21 45.18"/><polygon class="f" points="40.78 48.08 25.2 72.72 43.46 49.21 40.78 48.08"/><path class="a" d="M23.75,74c3.65,1,6.15,3.51,5.58,5.66a2.5,2.5,0,0,1-.57,1l-12.7-3.4a2.61,2.61,0,0,1,0-1.18C16.66,74,20.09,73.06,23.75,74Z"/><path class="f" d="M23.43,75.22c2.63.7,4.51,2.19,4.21,3.32a1,1,0,0,1-.35.53l-9.13-2.45a1.14,1.14,0,0,1,0-.63C18.43,74.86,20.8,74.52,23.43,75.22Z"/><polygon class="a" points="194.38 86.22 196.02 122.87 193.71 122.25 188.65 85.51 194.38 86.22"/><polygon class="f" points="193.31 88.95 194.47 118.07 190.42 88.59 193.31 88.95"/><path class="f" d="M194.76,121.13c-2.63-.71-5-.36-5.31.77a1.14,1.14,0,0,0,0,.63l9.13,2.45a1,1,0,0,0,.35-.53C199.27,123.32,197.39,121.83,194.76,121.13Z"/></svg>