<svg xmlns="http://www.w3.org/2000/svg" xmlns:xlink="http://www.w3.org/1999/xlink" width="238.39" height="408.96" viewBox="0 0 238.39 408.96"><defs><style>.a,.g,.r{fill:#c0c1c3;}.a,.b{clip-rule:evenodd;}.ac,.b,.u{fill:#383638;}.c{fill:#7a7c7f;}.aa,.ad,.ae,.c,.d,.f,.g,.h,.i,.j,.k,.n,.o,.u,.w,.z{fill-rule:evenodd;}.d,.t{fill:#404041;}.e,.f{fill:#8e4aaf;}.h,.q{fill:#9c9ea1;}.i,.x{fill:#6af263;}.j,.l{fill:#a6a8ab;}.k{fill:#d0d2d3;}.m,.z{fill:#fff;}.n{fill:#e6e7e8;}.o{fill:#808184;}.aa,.p{fill:none;stroke-linecap:round;stroke-miterlimit:2.61;}.p{stroke:#231f20;stroke-width:0.5px;}.ad,.s{fill:#58595b;}.v{fill:#f47f32;}.w{fill:#bbbdbf;}.y{clip-path:url(#a);}.aa{stroke:#404041;stroke-width:6px;}.ab{clip-path:url(#b);}.ae{fill:#454547;}</style><clipPath id="a"><path class="a" d="M96.67,56.51h45.24a5,5,0,0,1,5,5V78.41H91.64V61.53A5,5,0,0,1,96.67,56.51Z"/></clipPath><clipPath id="b"><path class="b" d="M87.65,187H151.9a2.35,2.35,0,0,1,2.35,2.35v17.15a8.25,8.25,0,0,1-8.22,8.23H93.53a8.26,8.26,0,0,1-8.23-8.23V189.36A2.36,2.36,0,0,1,87.65,187Z"/></clipPath></defs><title>robot-standing</title><path class="c" d="M178.14,116.25a18.19,18.19,0,1,0,22.8,11.9A18.19,18.19,0,0,0,178.14,116.25Z"/><path class="d" d="M179.2,119.62a14.65,14.65,0,1,0,17.46,20.6l-.66.23a14.15,14.15,0,0,1-16.25-21Z"/><path class="c" d="M190,139.33a18.19,18.19,0,1,0,22.81,11.9A18.19,18.19,0,0,0,190,139.33Z"/><path class="d" d="M191,142.7a14.66,14.66,0,1,0,17.46,20.6l-.66.23a14.15,14.15,0,0,1-16.25-21Z"/><path class="c" d="M200.68,165.58a18.19,18.19,0,1,0,22.81,11.9A18.19,18.19,0,0,0,200.68,165.58Z"/><path class="d" d="M201.74,169a14.65,14.65,0,1,0,17.47,20.6l-.67.23a14.15,14.15,0,0,1-16.24-21Z"/><path class="c" d="M204.9,194.49a18.19,18.19,0,1,0,22.81,11.9A18.19,18.19,0,0,0,204.9,194.49Z"/><path class="d" d="M206,197.86a14.66,14.66,0,1,0,17.47,20.6l-.67.23a14.15,14.15,0,0,1-16.25-21Z"/><path class="c" d="M211.92,222.18s24.63-.31,26.35,19-15,25.19-15,25.19c18.08-50.5-47.92-31.54-13,4.08C174.59,257.73,182.7,224.11,211.92,222.18Z"/><path class="d" d="M228.81,257.74c1.1-5.12,1.47-10.5.14-15.29-1.46-5.28-5-9.49-10.37-11-7.86-2.19-16.45,2.18-20,9.4a19.37,19.37,0,0,0-1,13.85,29.08,29.08,0,0,0,2,5.1,27.32,27.32,0,0,1-6.38-6.63,17.89,17.89,0,0,1-2.75-14.47,18.1,18.1,0,0,1,7-10A26.47,26.47,0,0,1,212.14,224a35.58,35.58,0,0,1,11.5,2.12c6.49,2.42,10.93,6.79,11.57,13.95.59,6.5-1.08,12.42-5.74,17.08C229.27,257.32,229.05,257.52,228.81,257.74Z"/><path class="c" d="M210.29,221.55a7.16,7.16,0,1,0,9,4.69A7.17,7.17,0,0,0,210.29,221.55Z"/><path class="d" d="M211.32,222.06a4.8,4.8,0,1,0,6,3.14A4.8,4.8,0,0,0,211.32,222.06Z"/><ellipse class="e" cx="156.68" cy="343.83" rx="23.71" ry="15.84"/><path class="f" d="M156.68,331.07c10.55,0,19.1,5.71,19.1,12.76s-8.55,12.75-19.1,12.75A24.53,24.53,0,0,1,143,352.74h.92c10.19,0,18.45-5.51,18.45-12.32,0-3.74-2.5-7.09-6.44-9.35Z"/><ellipse class="e" cx="153.6" cy="316.65" rx="23.71" ry="15.84"/><path class="f" d="M153.6,303.89c10.55,0,19.1,5.71,19.1,12.76s-8.55,12.76-19.1,12.76a24.46,24.46,0,0,1-13.68-3.86l.92,0c10.19,0,18.45-5.51,18.45-12.32,0-3.74-2.5-7.09-6.44-9.35Z"/><path class="f" d="M150.52,305.3c13.06,0,23.71-7.11,23.71-15.83s-10.65-15.84-23.71-15.84-23.72,7.12-23.72,15.84S137.46,305.3,150.52,305.3Z"/><path class="f" d="M150.52,276.71c10.55,0,19.1,5.71,19.1,12.76s-8.55,12.75-19.1,12.75a24.43,24.43,0,0,1-13.68-3.85l.92,0c10.19,0,18.45-5.52,18.45-12.32,0-3.74-2.5-7.09-6.44-9.35Z"/><path class="f" d="M147.43,278.12c13.07,0,23.72-7.11,23.72-15.84s-10.65-15.83-23.72-15.83-23.71,7.11-23.71,15.83S134.37,278.12,147.43,278.12Z"/><path class="f" d="M147.43,249.53c10.55,0,19.11,5.71,19.11,12.76S158,275,147.43,275a24.42,24.42,0,0,1-13.67-3.85l.92,0c10.19,0,18.45-5.52,18.45-12.32,0-3.74-2.5-7.09-6.44-9.35Z"/><ellipse class="e" cx="81.22" cy="343.83" rx="23.71" ry="15.84"/><path class="f" d="M81.22,331.07c-10.55,0-19.1,5.71-19.1,12.76s8.55,12.75,19.1,12.75a24.5,24.5,0,0,0,13.67-3.84H94c-10.19,0-18.44-5.51-18.44-12.32,0-3.74,2.49-7.09,6.44-9.35Z"/><ellipse class="e" cx="84.3" cy="316.65" rx="23.71" ry="15.84"/><path class="f" d="M79.93,303.89c-8.14,0-14.73,5.71-14.73,12.76s6.59,12.76,14.73,12.76a15.85,15.85,0,0,0,10.55-3.86l-.71,0c-7.86,0-14.23-5.51-14.23-12.32a11.69,11.69,0,0,1,5-9.35Z"/><path class="f" d="M87.38,305.3c13.06,0,23.71-7.11,23.71-15.83s-10.65-15.84-23.71-15.84-23.71,7.12-23.71,15.84S74.32,305.3,87.38,305.3Z"/><path class="f" d="M87.38,276.71c-10.55,0-19.1,5.71-19.1,12.76s8.55,12.75,19.1,12.75a24.42,24.42,0,0,0,13.67-3.85l-.92,0c-10.19,0-18.44-5.52-18.44-12.32,0-3.74,2.5-7.09,6.44-9.35Z"/><path class="f" d="M90.46,278.12c13.06,0,23.71-7.11,23.71-15.84s-10.65-15.83-23.71-15.83-23.71,7.11-23.71,15.83S77.4,278.12,90.46,278.12Z"/><path class="f" d="M90.46,249.53c-10.55,0-19.1,5.71-19.1,12.75S79.91,275,90.46,275a24.42,24.42,0,0,0,13.67-3.85l-.92,0c-10.19,0-18.44-5.52-18.44-12.32,0-3.74,2.5-7.09,6.44-9.35Z"/><path class="c" d="M64.33,371.36V360a7.26,7.26,0,0,1,7.24-7.24H92.63A7.26,7.26,0,0,1,99.87,360v11.39A6.89,6.89,0,0,1,93,378.24H71.21A6.9,6.9,0,0,1,64.33,371.36Z"/><path class="d" d="M67,360.78a5.94,5.94,0,0,1,5.56-3.88H89.76a5.94,5.94,0,0,1,5.93,5.92v15H89.45s1.39-11.06-1.73-14.88S67,360.78,67,360.78Z"/><path class="c" d="M51.15,409V377.15a12.65,12.65,0,0,1,12.61-12.61h36.68a12.64,12.64,0,0,1,12.61,12.61V409Z"/><path class="d" d="M58.63,375.9a9.86,9.86,0,0,1,9.2-6.43H96.37a9.85,9.85,0,0,1,9.81,9.81V404H95.86s2.29-18.29-2.87-24.6S58.63,375.9,58.63,375.9Z"/><path class="c" d="M138.66,370.44v-11.6a7.39,7.39,0,0,1,7.37-7.37h21.46a7.38,7.38,0,0,1,7.37,7.37v11.6a7,7,0,0,1-7,7H145.67A7,7,0,0,1,138.66,370.44Z"/><path class="d" d="M141.32,359.66a6.08,6.08,0,0,1,5.67-4h17.57a6.06,6.06,0,0,1,6,6V377h-6.35s1.41-11.26-1.77-15.14S141.32,359.66,141.32,359.66Z"/><path class="c" d="M125.24,408.74V376.33a12.88,12.88,0,0,1,12.84-12.84h37.36a12.88,12.88,0,0,1,12.85,12.84v32.41Z"/><path class="d" d="M132.86,375.06a10,10,0,0,1,9.37-6.54h29.06a10,10,0,0,1,10,10v25.2H170.77s2.34-18.63-2.91-25S132.86,375.06,132.86,375.06Z"/><path class="c" d="M60.26,116.25a18.19,18.19,0,1,1-22.81,11.9A18.19,18.19,0,0,1,60.26,116.25Z"/><path class="d" d="M59.2,119.62a14.65,14.65,0,1,1-17.47,20.6l.67.23a14.15,14.15,0,0,0,16.25-21Z"/><path class="c" d="M48.44,139.33a18.19,18.19,0,1,1-22.81,11.9A18.19,18.19,0,0,1,48.44,139.33Z"/><path class="d" d="M47.38,142.7a14.66,14.66,0,1,1-17.47,20.6l.67.23a14.15,14.15,0,0,0,16.25-21Z"/><path class="c" d="M37.71,165.58a18.19,18.19,0,1,1-22.81,11.9A18.19,18.19,0,0,1,37.71,165.58Z"/><path class="d" d="M36.65,169a14.65,14.65,0,1,1-17.47,20.6l.67.23a14.15,14.15,0,0,0,16.25-21Z"/><path class="c" d="M33.49,194.49a18.19,18.19,0,1,1-22.81,11.9A18.19,18.19,0,0,1,33.49,194.49Z"/><path class="d" d="M32.43,197.86A14.66,14.66,0,1,1,15,218.46l.67.23a14.15,14.15,0,0,0,16.25-21Z"/><path class="c" d="M26.48,222.18s-24.63-.31-26.36,19,15,25.19,15,25.19c-18.09-50.5,47.91-31.54,13,4.08C63.8,257.73,55.7,224.11,26.48,222.18Z"/><path class="d" d="M9.58,257.74c-1.1-5.12-1.46-10.5-.14-15.29,1.46-5.28,5-9.49,10.37-11,7.86-2.19,16.45,2.18,20,9.4a19.43,19.43,0,0,1,1,13.85,29.12,29.12,0,0,1-2,5.1,27.55,27.55,0,0,0,6.39-6.63,17.89,17.89,0,0,0,2.75-14.47,18.12,18.12,0,0,0-7-10A26.47,26.47,0,0,0,26.25,224a35.57,35.57,0,0,0-11.49,2.12C8.26,228.5,3.82,232.87,3.18,240c-.58,6.5,1.08,12.42,5.74,17.08Z"/><path class="c" d="M28.1,221.55a7.16,7.16,0,1,1-9,4.69A7.16,7.16,0,0,1,28.1,221.55Z"/><path class="d" d="M27.07,222.06a4.8,4.8,0,1,1-6,3.14A4.81,4.81,0,0,1,27.07,222.06Z"/><path class="c" d="M176.45,234a56.8,56.8,0,0,1-4.36,15.45v7.48c-24.72-1-35,20-35,20H119.3l-16.84-.05h-.86l-.64-.31,1.12-.4C100,272.45,89.45,256,67.46,256.88V249.4A56.43,56.43,0,0,1,63.11,234Z"/><path class="d" d="M119.78,240.12l.07,29.8-13.19,2.37-.63.34,13.27,0h15.32a47.3,47.3,0,0,1,7.88-9.28,41.07,41.07,0,0,1,25.41-10.65v-4.22l.36-.81a53.85,53.85,0,0,0,2.68-7.59Z"/><path class="g" d="M128,98.45V93.16a3.37,3.37,0,0,0-3.36-3.36h-9.78a3.38,3.38,0,0,0-3.37,3.36v5.29a3.21,3.21,0,0,0,3.2,3.2h10.11A3.21,3.21,0,0,0,128,98.45Z"/><path class="h" d="M126.82,93.54a2.78,2.78,0,0,0-2.59-1.81h-8a2.76,2.76,0,0,0-2.75,2.76v6.94h2.89s-.64-5.13.81-6.9S126.82,93.54,126.82,93.54Z"/><path class="h" d="M134.15,117.75V103a5.87,5.87,0,0,0-5.86-5.86h-17a5.87,5.87,0,0,0-5.85,5.86v14.77Z"/><path class="c" d="M130.68,102.39a4.59,4.59,0,0,0-4.28-3H113.15A4.57,4.57,0,0,0,108.6,104v11.49h4.79s-1.07-8.5,1.33-11.42S130.68,102.39,130.68,102.39Z"/><rect class="e" x="56.93" y="107.76" width="125.69" height="129.09"/><rect class="e" x="74.29" y="107.76" width="1.35" height="129.09"/><rect class="e" x="59.99" y="107.76" width="13.38" height="129.09"/><rect class="e" x="138.79" y="107.76" width="6.32" height="129.09"/><rect class="e" x="147.27" y="107.76" width="31.3" height="129.09"/><path class="i" d="M64.39,127a1.7,1.7,0,1,1-1.7,1.7,1.7,1.7,0,0,1,1.7-1.7Zm0-12.77a1.7,1.7,0,1,1-1.7,1.7,1.7,1.7,0,0,1,1.7-1.7Zm0,25.54a1.7,1.7,0,1,1-1.7,1.7,1.7,1.7,0,0,1,1.7-1.7Zm0,12.77a1.7,1.7,0,1,1-1.7,1.7,1.7,1.7,0,0,1,1.7-1.7Zm0,12.77a1.7,1.7,0,1,1-1.7,1.7,1.7,1.7,0,0,1,1.7-1.7Zm0,12.77a1.7,1.7,0,1,1-1.7,1.7,1.7,1.7,0,0,1,1.7-1.7Zm0,12.77a1.7,1.7,0,1,1-1.7,1.7,1.7,1.7,0,0,1,1.7-1.7Zm0,12.77a1.7,1.7,0,1,1-1.7,1.7,1.7,1.7,0,0,1,1.7-1.7Zm0,12.77a1.7,1.7,0,1,1-1.7,1.7,1.7,1.7,0,0,1,1.7-1.7Zm0,12.77a1.7,1.7,0,1,1-1.7,1.7A1.7,1.7,0,0,1,64.39,229.2Z"/><path class="i" d="M164.77,229.2a1.7,1.7,0,1,1-1.7,1.7,1.7,1.7,0,0,1,1.7-1.7Zm11.16,0a1.7,1.7,0,1,1-1.7,1.7,1.7,1.7,0,0,1,1.7-1.7Zm-22.31,0a1.7,1.7,0,1,1-1.7,1.7,1.7,1.7,0,0,1,1.7-1.7Zm-11.15,0a1.7,1.7,0,1,1-1.7,1.7,1.7,1.7,0,0,1,1.7-1.7Zm-11.16,0a1.7,1.7,0,1,1-1.7,1.7,1.7,1.7,0,0,1,1.7-1.7Zm-11.15,0a1.7,1.7,0,1,1-1.7,1.7,1.7,1.7,0,0,1,1.7-1.7Zm-11.16,0a1.7,1.7,0,1,1-1.69,1.7,1.7,1.7,0,0,1,1.69-1.7Zm-11.15,0a1.7,1.7,0,1,1-1.7,1.7,1.7,1.7,0,0,1,1.7-1.7Zm-11.15,0a1.7,1.7,0,1,1-1.7,1.7,1.7,1.7,0,0,1,1.7-1.7Zm-11.16,0a1.7,1.7,0,1,1-1.69,1.7,1.7,1.7,0,0,1,1.69-1.7Zm-11.15,0a1.7,1.7,0,1,1-1.7,1.7A1.7,1.7,0,0,1,64.39,229.2Z"/><path class="i" d="M175.93,127a1.7,1.7,0,1,1-1.7,1.7,1.7,1.7,0,0,1,1.7-1.7Zm0-12.77a1.7,1.7,0,1,1-1.7,1.7,1.7,1.7,0,0,1,1.7-1.7Zm0,25.54a1.7,1.7,0,1,1-1.7,1.7,1.7,1.7,0,0,1,1.7-1.7Zm0,12.77a1.7,1.7,0,1,1-1.7,1.7,1.7,1.7,0,0,1,1.7-1.7Zm0,12.77a1.7,1.7,0,1,1-1.7,1.7,1.7,1.7,0,0,1,1.7-1.7Zm0,12.77a1.7,1.7,0,1,1-1.7,1.7,1.7,1.7,0,0,1,1.7-1.7Zm0,12.77a1.7,1.7,0,1,1-1.7,1.7,1.7,1.7,0,0,1,1.7-1.7Zm0,12.77a1.7,1.7,0,1,1-1.7,1.7,1.7,1.7,0,0,1,1.7-1.7Zm0,12.77a1.7,1.7,0,1,1-1.7,1.7,1.7,1.7,0,0,1,1.7-1.7Zm0,12.77a1.7,1.7,0,1,1-1.7,1.7A1.7,1.7,0,0,1,175.93,229.2Z"/><path class="i" d="M164.77,114.27a1.7,1.7,0,1,1-1.7,1.7,1.7,1.7,0,0,1,1.7-1.7Zm11.16,0a1.7,1.7,0,1,1-1.7,1.7,1.7,1.7,0,0,1,1.7-1.7Zm-22.31,0a1.7,1.7,0,1,1-1.7,1.7,1.7,1.7,0,0,1,1.7-1.7Zm-11.15,0a1.7,1.7,0,1,1-1.7,1.7,1.7,1.7,0,0,1,1.7-1.7Zm-11.16,0a1.7,1.7,0,1,1-1.7,1.7,1.7,1.7,0,0,1,1.7-1.7Zm-11.15,0a1.7,1.7,0,1,1-1.7,1.7,1.7,1.7,0,0,1,1.7-1.7Zm-11.16,0a1.7,1.7,0,1,1-1.69,1.7,1.7,1.7,0,0,1,1.69-1.7Zm-11.15,0a1.7,1.7,0,1,1-1.7,1.7,1.7,1.7,0,0,1,1.7-1.7Zm-11.15,0A1.7,1.7,0,1,1,85,116a1.7,1.7,0,0,1,1.7-1.7Zm-11.16,0a1.7,1.7,0,1,1-1.69,1.7,1.7,1.7,0,0,1,1.69-1.7Zm-11.15,0a1.7,1.7,0,1,1-1.7,1.7A1.7,1.7,0,0,1,64.39,114.27Z"/><path class="i" d="M90.68,165.64a20.22,20.22,0,1,0-20.21-20.21A20.26,20.26,0,0,0,90.68,165.64Z"/><path class="j" d="M90.12,163.42a20.57,20.57,0,1,0-20.84-20.57A20.75,20.75,0,0,0,90.12,163.42Z"/><path class="k" d="M90.12,162.65a19.8,19.8,0,1,0-19.8-19.8A19.84,19.84,0,0,0,90.12,162.65Z"/><ellipse class="l" cx="90.12" cy="142.85" rx="17.39" ry="17.5"/><circle class="m" cx="90.12" cy="142.85" r="16.15" transform="translate(-21.72 16.28) rotate(-9.22)"/><path class="n" d="M90.12,153.86a11,11,0,1,0-11-11A11,11,0,0,0,90.12,153.86Z"/><path class="i" d="M97.65,129.81a15.06,15.06,0,0,1,5.73,6l-1.86,1.1a12.85,12.85,0,0,0-4.91-5.14Z"/><path class="i" d="M103.11,135.3a15.18,15.18,0,0,1,.06,15l-1.82-1.17a12.86,12.86,0,0,0-.13-12.76Z"/><path class="i" d="M77.14,150.4a15,15,0,0,1-2-7.5h2.14A12.83,12.83,0,0,0,79,149.32Z"/><polygon class="i" points="81.35 135.32 89.46 144.4 90.78 143.14 81.35 135.32"/><path class="o" d="M90.12,144.68a.92.92,0,1,0,0-1.83.92.92,0,0,0,0,1.83Z"/><line class="p" x1="90.08" y1="127.24" x2="90.08" y2="130.41"/><line class="p" x1="97.89" y1="129.31" x2="96.3" y2="132.06"/><line class="p" x1="103.62" y1="135.01" x2="100.87" y2="136.59"/><line class="p" x1="105.73" y1="142.8" x2="102.56" y2="142.8"/><line class="p" x1="103.66" y1="150.61" x2="100.91" y2="149.03"/><line class="p" x1="82.28" y1="129.35" x2="83.86" y2="132.1"/><line class="p" x1="76.58" y1="135.08" x2="79.33" y2="136.67"/><line class="p" x1="74.51" y1="142.89" x2="77.69" y2="142.89"/><line class="p" x1="76.63" y1="150.69" x2="79.37" y2="149.11"/><path class="i" d="M140.7,163.62h9.79a1.35,1.35,0,0,0,1.29-1h.5a1.78,1.78,0,0,0,1.78-1.78v-.31h12.17l.06,0h.41l0,0H167a3.74,3.74,0,0,0,2.28-3.44V129.34a3.75,3.75,0,0,0-3.74-3.74H127.77a3.73,3.73,0,0,0-3.43,2.28h0V128h0v.07h0v.09l0,0v0h0v.08h0v.07h0v.16h0v.08h0l0,.09h0v.09h0V129h0v.09h0v.09h0v.09h0V156.8a3.75,3.75,0,0,0,3.73,3.74h9.68v.31a1.78,1.78,0,0,0,1.78,1.78h.18A1.33,1.33,0,0,0,140.7,163.62Z"/><path class="c" d="M139.27,162.32h9.79A1.34,1.34,0,0,0,150.4,161v-2.92H137.94V161A1.34,1.34,0,0,0,139.27,162.32Z"/><path class="h" d="M137.81,161.33h13.05a1.78,1.78,0,0,0,1.78-1.78v-3.89H136v3.89A1.78,1.78,0,0,0,137.81,161.33Z"/><path class="q" d="M126.35,124.3h37.79a3.73,3.73,0,0,1,3.73,3.73V155.5a3.74,3.74,0,0,1-3.74,3.74H126.35a3.73,3.73,0,0,1-3.73-3.73V128A3.74,3.74,0,0,1,126.35,124.3Z"/><path class="g" d="M126.35,159.23h37.79a3.74,3.74,0,0,0,1.46-.3,3.74,3.74,0,0,0,.3-1.46V130a3.75,3.75,0,0,0-3.74-3.74H124.37a3.74,3.74,0,0,0-1.46.3,3.77,3.77,0,0,0-.3,1.46V155.5A3.75,3.75,0,0,0,126.35,159.23Z"/><rect class="q" x="134.64" y="128.06" width="23.18" height="7.36" rx="1.37" ry="1.37"/><rect class="r" x="134.04" y="128.72" width="23.18" height="7.36" rx="1.37" ry="1.37"/><rect class="s" x="135.63" y="129.92" width="19.99" height="4.94" rx="0.92" ry="0.92"/><path class="c" d="M140.19,134.87H154.7a.92.92,0,0,0,.92-.92v-3.1a.93.93,0,0,0-.92-.93H136.55a1,1,0,0,0-.59.22Z"/><path class="k" d="M156.84,131v-.63a1.21,1.21,0,0,0-1.21-1.21h-20a1.21,1.21,0,0,0-1.21,1.21V131h.92v-.3a1,1,0,0,1,1-1h18.57a1,1,0,0,1,1,1v.3Z"/><path class="n" d="M135.47,135.86h20a1.22,1.22,0,0,0,1.21-1.22v-3.43h-.92v3.1a1,1,0,0,1-1,1H136.19a1,1,0,0,1-1-1v-3.1h-.91v3.43A1.22,1.22,0,0,0,135.47,135.86Z"/><path class="g" d="M139.63,135.05h1.45v-5.3h-1.45v5.3Zm-2.74,0h1.45v-5.3h-1.45v5.3Zm5.47,0h1.45v-5.3h-1.45v5.3Zm2.74,0h1.45v-5.3H145.1v5.3Zm2.73,0h1.45v-5.3h-1.45v5.3Zm2.74,0H152v-5.3h-1.45v5.3Zm2.73,0h1.45v-5.3H153.3Z"/><path class="n" d="M140.35,135.05h.36v-5h-.36v5Zm-2.73-5v5H138v-5Zm5.47,0v5h.36v-5h-.36Zm2.73,0v5h.36v-5h-.36Zm2.74,0v5h.36v-5h-.36Zm2.73,0v5h.37v-5h-.37Zm2.74,0v5h.36v-5Z"/><path class="g" d="M138.25,160.75h12.16A1.49,1.49,0,0,0,152,159.7H136.8A1.33,1.33,0,0,0,138.25,160.75Z"/><path class="h" d="M139.53,162.07h9.23c.47,0,.9-.12,1-.33H138.62C138.7,162,139.06,162.07,139.53,162.07Z"/><rect class="t" x="125.38" y="128.12" width="39.21" height="28.1" rx="3.24" ry="3.24"/><path class="u" d="M162.43,154.67h0a.53.53,0,0,1,.28-.27,3.1,3.1,0,0,0,.8-2.06V132a3.07,3.07,0,0,0-3.06-3.06H129.53a3,3,0,0,0-2.08.82,10.15,10.15,0,0,1,3,3.44c7.65,12.61,10.49,5.12,23.33,8.11C158.21,142.35,164.3,151,162.43,154.67Z"/><polygon class="v" points="137 141.89 138.2 147 139.57 140.98 139.84 144.55 140.68 142.49 141.5 146.43 142.3 140.98 142.84 145.14 143.42 142.37 143.92 147.53 146.63 140.34 147.33 142.99 147.59 143.94 147.99 143.09 148.45 142.13 149.57 147.62 151.12 140.8 151.67 142.69 151.76 143 152.01 143 163.51 141.97 152.27 142.05 151.28 138.1 149.74 144.08 148.89 140.87 148.64 139.91 148.23 140.77 147.78 141.74 147.06 139.05 146.8 138.06 146.4 138.96 144.19 145.34 143.56 139.09 142.91 141.5 142.39 138.09 141.47 142.69 141.04 139.04 140.19 141.94 139.97 137.34 138.16 143.75 137.63 141.29 137.56 140.94 137.28 140.94 127.92 141.73 137 141.89"/><path class="w" d="M63.89,126.33A1.7,1.7,0,1,1,62.2,128a1.7,1.7,0,0,1,1.69-1.7Zm0-12.77a1.7,1.7,0,1,1-1.69,1.7,1.7,1.7,0,0,1,1.69-1.7Zm0,25.54a1.7,1.7,0,1,1-1.69,1.7,1.7,1.7,0,0,1,1.69-1.7Zm0,12.77a1.7,1.7,0,1,1-1.69,1.7,1.7,1.7,0,0,1,1.69-1.7Zm0,12.77a1.7,1.7,0,1,1-1.69,1.7,1.7,1.7,0,0,1,1.69-1.7Zm0,12.77a1.7,1.7,0,1,1-1.69,1.7,1.7,1.7,0,0,1,1.69-1.7Zm0,12.77a1.7,1.7,0,1,1-1.69,1.7,1.7,1.7,0,0,1,1.69-1.7Zm0,12.78a1.7,1.7,0,1,1-1.69,1.69A1.7,1.7,0,0,1,63.89,203Zm0,12.77a1.7,1.7,0,1,1-1.69,1.69,1.7,1.7,0,0,1,1.69-1.69Zm0,12.77a1.7,1.7,0,1,1-1.69,1.69A1.7,1.7,0,0,1,63.89,228.5Z"/><path class="w" d="M164.28,228.5a1.7,1.7,0,1,1-1.7,1.69,1.7,1.7,0,0,1,1.7-1.69Zm11.15,0a1.7,1.7,0,1,1-1.7,1.69,1.7,1.7,0,0,1,1.7-1.69Zm-22.31,0a1.7,1.7,0,1,1-1.69,1.69,1.7,1.7,0,0,1,1.69-1.69Zm-11.15,0a1.7,1.7,0,1,1-1.7,1.69,1.7,1.7,0,0,1,1.7-1.69Zm-11.15,0a1.7,1.7,0,1,1-1.7,1.69,1.7,1.7,0,0,1,1.7-1.69Zm-11.16,0a1.7,1.7,0,1,1-1.7,1.69,1.7,1.7,0,0,1,1.7-1.69Zm-11.15,0a1.7,1.7,0,1,1-1.7,1.69,1.7,1.7,0,0,1,1.7-1.69Zm-11.15,0a1.7,1.7,0,1,1-1.7,1.69,1.69,1.69,0,0,1,1.7-1.69Zm-11.16,0a1.7,1.7,0,1,1-1.7,1.69,1.7,1.7,0,0,1,1.7-1.69Zm-11.15,0a1.7,1.7,0,1,1-1.7,1.69,1.7,1.7,0,0,1,1.7-1.69Zm-11.16,0a1.7,1.7,0,1,1-1.69,1.69A1.7,1.7,0,0,1,63.89,228.5Z"/><path class="w" d="M175.43,126.33a1.7,1.7,0,1,1-1.7,1.7,1.7,1.7,0,0,1,1.7-1.7Zm0-12.77a1.7,1.7,0,1,1-1.7,1.7,1.7,1.7,0,0,1,1.7-1.7Zm0,25.54a1.7,1.7,0,1,1-1.7,1.7,1.7,1.7,0,0,1,1.7-1.7Zm0,12.77a1.7,1.7,0,1,1-1.7,1.7,1.7,1.7,0,0,1,1.7-1.7Zm0,12.77a1.7,1.7,0,1,1-1.7,1.7,1.7,1.7,0,0,1,1.7-1.7Zm0,12.77a1.7,1.7,0,1,1-1.7,1.7,1.7,1.7,0,0,1,1.7-1.7Zm0,12.77a1.7,1.7,0,1,1-1.7,1.7,1.7,1.7,0,0,1,1.7-1.7Zm0,12.78a1.7,1.7,0,1,1-1.7,1.69,1.7,1.7,0,0,1,1.7-1.69Zm0,12.77a1.7,1.7,0,1,1-1.7,1.69,1.7,1.7,0,0,1,1.7-1.69Zm0,12.77a1.7,1.7,0,1,1-1.7,1.69A1.7,1.7,0,0,1,175.43,228.5Z"/><path class="w" d="M164.28,113.56a1.7,1.7,0,1,1-1.7,1.7,1.7,1.7,0,0,1,1.7-1.7Zm11.15,0a1.7,1.7,0,1,1-1.7,1.7,1.7,1.7,0,0,1,1.7-1.7Zm-22.31,0a1.7,1.7,0,1,1-1.69,1.7,1.7,1.7,0,0,1,1.69-1.7Zm-11.15,0a1.7,1.7,0,1,1-1.7,1.7,1.7,1.7,0,0,1,1.7-1.7Zm-11.15,0a1.7,1.7,0,1,1-1.7,1.7,1.7,1.7,0,0,1,1.7-1.7Zm-11.16,0a1.7,1.7,0,1,1-1.7,1.7,1.7,1.7,0,0,1,1.7-1.7Zm-11.15,0a1.7,1.7,0,1,1-1.7,1.7,1.7,1.7,0,0,1,1.7-1.7Zm-11.15,0a1.7,1.7,0,1,1-1.7,1.7,1.7,1.7,0,0,1,1.7-1.7Zm-11.16,0a1.7,1.7,0,1,1-1.7,1.7,1.7,1.7,0,0,1,1.7-1.7Zm-11.15,0a1.7,1.7,0,1,1-1.7,1.7,1.7,1.7,0,0,1,1.7-1.7Zm-11.16,0a1.7,1.7,0,1,1-1.69,1.7A1.7,1.7,0,0,1,63.89,113.56Z"/><path class="g" d="M163.05,55.66l3.46-1.7a2.46,2.46,0,0,1,3.27,1.12l3.13,6.39a2.45,2.45,0,0,1-1.12,3.27l-3.45,1.7a2.33,2.33,0,0,1-3.11-1.07L162,58.77A2.34,2.34,0,0,1,163.05,55.66Z"/><path class="h" d="M166.65,54.88a2,2,0,0,1,2,1.11l2.56,5.23a2,2,0,0,1-.91,2.68l-4.54,2.22-.93-1.89s3.56-1.22,4.25-2.74S166.65,54.88,166.65,54.88Z"/><path class="c" d="M148.49,57.84l9.65-4.73a4.28,4.28,0,0,1,5.7,2l5.45,11.12a4.26,4.26,0,0,1-1.94,5.7l-9.65,4.73Z"/><path class="d" d="M159.63,55.19A3.34,3.34,0,0,1,163,57l4.24,8.65a3.31,3.31,0,0,1-1.51,4.43l-7.51,3.68-1.53-3.12s5.89-2,7-4.53S159.63,55.19,159.63,55.19Z"/><path class="g" d="M76.5,55.66,73.05,54a2.46,2.46,0,0,0-3.27,1.12l-3.14,6.39a2.45,2.45,0,0,0,1.12,3.27l3.45,1.7a2.33,2.33,0,0,0,3.11-1.07l3.24-6.6A2.32,2.32,0,0,0,76.5,55.66Z"/><path class="h" d="M72.9,54.88a2,2,0,0,0-2,1.11l-2.57,5.23a2,2,0,0,0,.92,2.68l4.53,2.22.93-1.89S71.15,63,70.46,61.49,72.9,54.88,72.9,54.88Z"/><path class="c" d="M91.06,57.84l-9.65-4.73a4.27,4.27,0,0,0-5.69,2L70.26,66.18a4.27,4.27,0,0,0,1.95,5.7l9.64,4.73Z"/><path class="d" d="M79.92,55.19A3.32,3.32,0,0,0,76.61,57l-4.25,8.65a3.32,3.32,0,0,0,1.52,4.43l7.5,3.68,1.53-3.12s-5.88-2-7-4.53S79.92,55.19,79.92,55.19Z"/><path class="f" d="M119.78,0a15.26,15.26,0,0,1,14,9.07h0l44.34,96.46H61.46L105.81,9.07h0A15.28,15.28,0,0,1,119.78,0Z"/><path class="f" d="M119.87,0a15.28,15.28,0,0,1,13.87,9.07h0l44.34,96.46H119.87Z"/><path class="x" d="M106.09,89.34h28.2a1.9,1.9,0,0,1,1.9,1.9v6.37a1.9,1.9,0,0,1-1.9,1.9h-28.2a1.9,1.9,0,0,1-1.9-1.9V91.24A1.89,1.89,0,0,1,106.09,89.34Z"/><rect class="r" x="103.36" y="88.43" width="31.99" height="10.16" rx="1.9" ry="1.9"/><rect class="s" x="105.56" y="90.1" width="27.6" height="6.82" rx="1.27" ry="1.27"/><path class="c" d="M111.85,90.1h20a1.27,1.27,0,0,1,1.27,1.27v4.28a1.27,1.27,0,0,1-1.27,1.27H106.83a1.23,1.23,0,0,1-.81-.3Z"/><path class="k" d="M134.84,95.45v.87A1.69,1.69,0,0,1,133.17,98H105.56a1.68,1.68,0,0,1-1.68-1.68v-.87h1.26v.41a1.4,1.4,0,0,0,1.4,1.4h25.64a1.4,1.4,0,0,0,1.4-1.4v-.41Z"/><path class="n" d="M105.35,88.74H133a1.68,1.68,0,0,1,1.68,1.67v4.75h-1.26V90.87a1.4,1.4,0,0,0-1.4-1.4H106.33a1.4,1.4,0,0,0-1.4,1.4v4.29h-1.26V90.41A1.68,1.68,0,0,1,105.35,88.74Z"/><path class="g" d="M111.08,89.85h2v7.32h-2V89.85Zm-3.78,0h2v7.32h-2V89.85Zm7.55,0h2v7.32h-2V89.85Zm3.78,0h2v7.32h-2V89.85Zm3.77,0h2v7.32h-2V89.85Zm3.78,0h2v7.32h-2V89.85Zm3.78,0h2v7.32h-2Z"/><path class="n" d="M112.08,89.85h.5v7h-.5v-7Zm-3.78,7v-7h.5v7Zm7.55,0v-7h.5v7h-.5Zm3.78,0v-7h.5v7h-.5Zm3.78,0v-7h.5v7h-.5Zm3.77,0v-7h.5v7h-.5Zm3.78,0v-7h.5v7Z"/><path class="i" d="M97.65,55.71h45.24a6.68,6.68,0,0,1,6.66,6.67V80.89H91V62.38A6.69,6.69,0,0,1,97.65,55.71Z"/><path class="d" d="M96.67,54.87h45.24a6.67,6.67,0,0,1,6.66,6.67V80.05H90V61.54A6.68,6.68,0,0,1,96.67,54.87Z"/><path class="g" d="M96.67,56.51h45.24a5,5,0,0,1,5,5V78.41H91.64V61.53A5,5,0,0,1,96.67,56.51Z"/><g class="y"><path class="h" d="M120.91,78.41l-2.65-9.09V56.51h23.65a5,5,0,0,1,5,5V78.41Z"/><path class="q" d="M109.86,63.52a1.39,1.39,0,0,0-1.36,1.38,1.37,1.37,0,0,0,1.38,1.35h.06a3.07,3.07,0,0,1,2.33,1.33,5.33,5.33,0,0,1,1.14,3.08h0v.08h0V87.63a1.37,1.37,0,0,0,2.74,0V70.75h0v-.12a8.11,8.11,0,0,0-1.71-4.72,5.77,5.77,0,0,0-4.49-2.38h-.08Z"/><path class="d" d="M110.66,69.62l-12-.3s-.65,4.61,3.53,6S110.17,73.64,110.66,69.62Z"/><path class="z" d="M105.56,73.36a1.69,1.69,0,1,0-1.84-1.68A1.78,1.78,0,0,0,105.56,73.36Z"/><path class="aa" d="M96,66s9.8-6,18.82,2"/><path class="d" d="M124.94,69.62l12-.3s.65,4.61-3.53,6S125.44,73.64,124.94,69.62Z"/><path class="z" d="M133.12,73.36a1.69,1.69,0,1,0-1.85-1.68A1.77,1.77,0,0,0,133.12,73.36Z"/><path class="aa" d="M139.65,66s-9.81-6-18.83,2"/><path class="h" d="M79,48.34h71.57V83.83H79V48.34Zm68.92,30.85,2.65-9.08V57.29H97.85a5,5,0,0,0-5,5V79.19Z"/></g><path class="g" d="M87.65,185.5a3.86,3.86,0,0,0-3.86,3.86v17.15a9.76,9.76,0,0,0,9.74,9.74H146a9.76,9.76,0,0,0,9.73-9.74V189.36a3.86,3.86,0,0,0-3.86-3.86Z"/><path class="u" d="M87.65,187H151.9a2.35,2.35,0,0,1,2.35,2.35v17.15a8.25,8.25,0,0,1-8.22,8.23H93.53a8.26,8.26,0,0,1-8.23-8.23V189.36A2.36,2.36,0,0,1,87.65,187Z"/><g class="ab"><path class="d" d="M89.46,188.5h64.26a2.36,2.36,0,0,1,2.35,2.35V208a8.26,8.26,0,0,1-8.23,8.23H95.34A8.25,8.25,0,0,1,87.12,208V190.85A2.35,2.35,0,0,1,89.46,188.5Z"/><rect class="ac" x="85.2" y="191.64" width="70.56" height="1.89"/><rect class="ac" x="85.2" y="196.24" width="70.56" height="1.89"/><rect class="ac" x="85.2" y="200.83" width="70.56" height="1.89"/><rect class="ac" x="85.2" y="205.43" width="70.56" height="1.89"/><rect class="ac" x="85.55" y="210.03" width="68.67" height="1.89"/></g><rect class="r" x="118.16" y="186.2" width="3.23" height="29.21"/><rect class="r" x="85.2" y="191.56" width="70.56" height="1.15"/><rect class="r" x="85.2" y="196.16" width="70.56" height="1.15"/><rect class="r" x="85.2" y="200.76" width="70.56" height="1.15"/><rect class="r" x="85.2" y="205.36" width="70.56" height="1.15"/><rect class="r" x="85.55" y="209.96" width="68.67" height="1.15"/><path class="i" d="M77.78,177.92a5.18,5.18,0,1,0-4.92-5.17A5.06,5.06,0,0,0,77.78,177.92Z"/><path class="g" d="M77.78,167.58a4.92,4.92,0,1,0,4.91,4.92A4.92,4.92,0,0,0,77.78,167.58Z"/><path class="h" d="M77.52,168.62a4.23,4.23,0,1,0,4.22,4.23A4.23,4.23,0,0,0,77.52,168.62Z"/><path class="ad" d="M77.78,168.28A4.23,4.23,0,1,0,82,172.5,4.22,4.22,0,0,0,77.78,168.28Z"/><path class="ae" d="M77.87,175.7a2.87,2.87,0,1,0-3-2.87A3,3,0,0,0,77.87,175.7Z"/><path class="i" d="M77.78,169.8a2.7,2.7,0,1,0,2.86,2.7A2.79,2.79,0,0,0,77.78,169.8Z"/><path class="i" d="M75.94,172.12a1.58,1.58,0,0,0,0,.38,1.89,1.89,0,0,0,3.77,0,1.72,1.72,0,0,0-.85-1.46A1.87,1.87,0,0,1,77,172.41,2,2,0,0,1,75.94,172.12Z"/><path class="i" d="M77.2,170.28a.7.7,0,1,0,.76.7A.73.73,0,0,0,77.2,170.28Z"/><path class="i" d="M89.82,177.92a5.18,5.18,0,1,0-4.92-5.17A5.06,5.06,0,0,0,89.82,177.92Z"/><path class="g" d="M89.82,167.58a4.92,4.92,0,1,0,4.92,4.92A4.92,4.92,0,0,0,89.82,167.58Z"/><path class="h" d="M89.56,168.62a4.23,4.23,0,1,0,4.22,4.23A4.23,4.23,0,0,0,89.56,168.62Z"/><circle class="s" cx="89.82" cy="172.5" r="4.22"/><path class="ae" d="M89.92,175.7a2.88,2.88,0,1,0-3-2.87A3,3,0,0,0,89.92,175.7Z"/><path class="i" d="M89.82,169.8a2.7,2.7,0,1,0,2.86,2.7A2.79,2.79,0,0,0,89.82,169.8Z"/><path class="i" d="M88,172.12a1.58,1.58,0,0,0,0,.38,1.89,1.89,0,0,0,3.77,0,1.72,1.72,0,0,0-.85-1.46A1.87,1.87,0,0,1,89,172.41,2,2,0,0,1,88,172.12Z"/><path class="i" d="M89.24,170.28a.7.7,0,1,0,.76.7A.73.73,0,0,0,89.24,170.28Z"/><path class="i" d="M101.86,177.92a5.18,5.18,0,1,0-4.92-5.17A5.06,5.06,0,0,0,101.86,177.92Z"/><path class="g" d="M101.86,167.58a4.92,4.92,0,1,0,4.92,4.92A4.92,4.92,0,0,0,101.86,167.58Z"/><path class="h" d="M101.6,168.62a4.23,4.23,0,1,0,4.23,4.23A4.22,4.22,0,0,0,101.6,168.62Z"/><circle class="s" cx="101.86" cy="172.5" r="4.22"/><path class="ae" d="M102,175.7a2.88,2.88,0,1,0-3-2.87A3,3,0,0,0,102,175.7Z"/><path class="i" d="M101.86,169.8a2.7,2.7,0,1,0,2.86,2.7A2.79,2.79,0,0,0,101.86,169.8Z"/><path class="i" d="M100,172.12a1.58,1.58,0,0,0,0,.38,1.88,1.88,0,0,0,3.76,0,1.72,1.72,0,0,0-.85-1.46,1.86,1.86,0,0,1-1.83,1.37A2,2,0,0,1,100,172.12Z"/><path class="i" d="M101.29,170.28a.7.7,0,1,0,.75.7A.73.73,0,0,0,101.29,170.28Z"/></svg>