<svg xmlns="http://www.w3.org/2000/svg" width="212.23" height="288.11" viewBox="0 0 212.23 288.11"><defs><style>.a,.c{fill:#7a7c7f;}.a,.b,.f,.g,.h,.i,.k,.l,.m,.q,.r,.t,.u,.x{fill-rule:evenodd;}.b,.v{fill:#bbbdbf;}.d,.h{fill:#404041;}.e,.g{fill:#9c9ea1;}.f,.o{fill:#c0c1c3;}.i,.s{fill:#a6a8ab;}.j,.k{fill:#8e4aaf;}.l,.w{fill:#6af263;}.m,.p{fill:#58595b;}.n,.t{fill:#454547;}.q{fill:#d0d2d3;}.r{fill:#e6e7e8;}.u{fill:#383638;}.x{fill:#fff;}</style></defs><title>robot-rolling</title><path class="a" d="M195,65.32a17.25,17.25,0,0,1-17.25-17.25V46.52h8.6v1.55a8.65,8.65,0,1,0,15.87-4.75l-.69-1,6-6.21,1.1,1.42A17.25,17.25,0,0,1,195,65.32Z"/><path class="b" d="M192,63.38a15.7,15.7,0,0,1-12.21-15.31h5.49a10.2,10.2,0,0,0,9.24,10.16A8.56,8.56,0,0,0,192,63.38Zm9.72-7.24A10.2,10.2,0,0,0,204,42.46h0l3.87-4a15.7,15.7,0,0,1-1.39,20.82A8.08,8.08,0,0,0,201.72,56.14Z"/><path class="c" d="M207.63,64.48a66.07,66.07,0,0,1,1.39,9.8L207.4,75c.56.17,1.67.54,1.67.54a52.28,52.28,0,0,1-.55,9.84c-.57.11-1.72.29-1.72.29l1.52.85c-.28,1.54-.62,3-1,4.5a48.49,48.49,0,0,1-1.8,5.07l-1.75-.1c.42.4,1.24,1.23,1.24,1.23a43.67,43.67,0,0,1-5.39,8.78l-1.66-.56c.3.5.87,1.52.87,1.52a46.65,46.65,0,0,1-4.83,4.91c-.82.7-1.63,1.37-2.49,2l-1.43-1c.18.55.51,1.66.51,1.66a54.57,54.57,0,0,1-8.38,4.92c-.41-.41-1.22-1.25-1.22-1.25,0,.58.13,1.75.13,1.75a66.34,66.34,0,0,1-9.76,3.4l-1-1.43c-.07.58-.22,1.75-.22,1.75l-.13,0a81.89,81.89,0,0,1-8.5,1.55l-.73-1.56c-.11.56-.34,1.7-.34,1.7-3.16.35-6.16.53-9.34.59-.19-.55-.58-1.64-.58-1.64l-.58,1.65c-3.39,0-6.64-.15-10-.42l-.47-1.7-.78,1.58-.92-.09c.49-4.68,1.45-14,1.45-14l.78.07c.14.6.44,1.8.44,1.8.25-.56.73-1.69.73-1.69,2.94.24,5.76.37,8.71.37.18.58.56,1.74.56,1.74.17-.58.5-1.75.5-1.75,2.68,0,5.21-.2,7.87-.5l.7,1.68c.09-.6.26-1.79.26-1.79a70.38,70.38,0,0,0,6.93-1.27l.08,0c.31.52,1,1.56,1,1.56,0-.61.1-1.83.1-1.83a53,53,0,0,0,7.54-2.62c.38.46,1.17,1.38,1.17,1.38-.09-.59-.3-1.78-.3-1.78a39.93,39.93,0,0,0,6.09-3.57l1.39,1.15c-.23-.56-.7-1.66-.7-1.66.59-.45,1.16-.91,1.73-1.4A34.58,34.58,0,0,0,188,97.84l1.64.76c-.35-.49-1.08-1.45-1.08-1.45a29.52,29.52,0,0,0,3.6-5.84l1.78.29-1.43-1.1a31.75,31.75,0,0,0,1.22-3.43c.29-1,.52-2,.72-3.08l1.79-.14c-.54-.25-1.65-.71-1.65-.71a38.25,38.25,0,0,0,.4-7.09l1.72-.58-1.77-.39a50.83,50.83,0,0,0-1.07-7.55Z"/><path class="d" d="M195.43,67.18c1.49,7.29,1.75,13.11-.17,20.34a30.44,30.44,0,0,1-9.51,14.88c-5.87,4.91-11.38,7.25-18.75,9.15-9.82,2.23-18,2.3-28,1.38-.22,2.2-.68,6.6-.68,6.6,10.83,1,19.64.89,30.27-1.52,8.51-2.2,14.78-4.93,21.55-10.6a37,37,0,0,0,11.53-18c2.24-8.42,2-15.12.27-23.61Z"/><path class="e" d="M206.83,85.65l-10.65-1.8-1.66.13,13.8,2.5-1.49-.83ZM207.44,75l1.63.53-14,.51,1.6-.53L207.44,75Zm-3.69,21L205,97.18l-12.74-5.85,1.65.27L203.75,96Zm-5.82,9.45.86,1.5-10.73-9,1.52.7,8.35,6.84Zm-7.88,7.47-6.42-8.67-1.29-1.06,8.21,11.37-.5-1.64Zm-9.1,5.34c.05.57.13,1.72.13,1.72-1.91-4.27-5.71-12.81-5.71-12.81.35.43,1.08,1.28,1.08,1.28l4.5,9.81Zm-10.65,3.71c-.07.58-.22,1.73-.22,1.73L166.75,110l.9,1.45,2.65,10.45Zm-9.58,1.77c-.11.56-.34,1.67-.34,1.67-.54-4.64-1.6-13.93-1.6-13.93.21.52.64,1.55.64,1.55.43,3.57,1.3,10.71,1.3,10.71Zm-10.27.65-.57,1.62c0-4.67,0-14,0-14,.17.54.52,1.62.52,1.62l.1,10.78Zm-11.07-.47-.76,1.56c.44-4.65,1.33-14,1.33-14,.13.56.4,1.66.4,1.66C140,116.73,139.38,123.89,139.38,123.89Z"/><path class="f" d="M152,108.44h6.4a4.08,4.08,0,0,1,4.06,4.06v11.83a4.08,4.08,0,0,1-4.06,4.06H152a3.88,3.88,0,0,1-3.86-3.86V112.3A3.88,3.88,0,0,1,152,108.44Z"/><path class="g" d="M157.9,109.91a3.33,3.33,0,0,1,2.18,3.12v9.68a3.33,3.33,0,0,1-3.32,3.33h-8.4v-3.5s6.2.78,8.35-1S157.9,109.91,157.9,109.91Z"/><path class="a" d="M130.86,101h17.85a7.1,7.1,0,0,1,7.08,7.08v20.59a7.09,7.09,0,0,1-7.08,7.07H130.86Z"/><path class="h" d="M149.42,105.24a5.52,5.52,0,0,1,3.6,5.17v16a5.52,5.52,0,0,1-5.5,5.51H133.63v-5.79s10.26,1.28,13.8-1.61S149.42,105.24,149.42,105.24Z"/><path class="i" d="M200.22,71.79a7.32,7.32,0,1,0-7.32-7.31A7.32,7.32,0,0,0,200.22,71.79Z"/><path class="a" d="M200.22,68.89a4.41,4.41,0,1,0-4.42-4.41A4.42,4.42,0,0,0,200.22,68.89Z"/><path class="a" d="M17.25,170.78A17.25,17.25,0,0,1,34.5,188v1.55H25.89V188A8.65,8.65,0,1,0,10,192.78l.68,1-6,6.21-1.1-1.42a17.25,17.25,0,0,1,13.62-27.83Z"/><path class="b" d="M20.22,172.72A15.71,15.71,0,0,1,32.44,188H27a10.21,10.21,0,0,0-9.25-10.16,8.5,8.5,0,0,0,2.52-5.15ZM10.51,180a10.19,10.19,0,0,0-2.29,13.68h0l-3.87,4a15.68,15.68,0,0,1,1.4-20.82A8.08,8.08,0,0,0,10.51,180Z"/><path class="c" d="M4.6,171.62a63.54,63.54,0,0,1-1.39-9.8l1.61-.68c-.56-.17-1.67-.54-1.67-.54a53.13,53.13,0,0,1,.56-9.84c.57-.11,1.71-.29,1.71-.29l-1.52-.85c.29-1.54.62-3,1.05-4.5a48.49,48.49,0,0,1,1.8-5.07l1.75.11-1.25-1.24a43.26,43.26,0,0,1,5.4-8.78l1.66.56c-.3-.5-.87-1.52-.87-1.52a45.7,45.7,0,0,1,4.83-4.91c.81-.7,1.63-1.37,2.49-2l1.43,1c-.18-.55-.52-1.66-.52-1.66a54.66,54.66,0,0,1,8.39-4.92c.41.41,1.22,1.25,1.22,1.25-.05-.58-.13-1.75-.13-1.75a65.82,65.82,0,0,1,9.75-3.4c.35.47,1,1.43,1,1.43.07-.58.23-1.75.23-1.75l.13,0a81.41,81.41,0,0,1,8.5-1.55l.72,1.56c.12-.56.35-1.69.35-1.69,3.15-.35,6.16-.54,9.33-.6l.59,1.64.57-1.65c3.4,0,6.65.15,10,.43.16.56.46,1.69.46,1.69l.78-1.58.92.09c-.48,4.68-1.45,14.05-1.45,14.05l-.78-.07c-.14-.6-.43-1.8-.43-1.8-.25.56-.74,1.69-.74,1.69-2.93-.24-5.76-.37-8.7-.37-.19-.58-.56-1.74-.56-1.74l-.51,1.75c-2.67,0-5.21.2-7.87.5l-.69-1.68c-.09.6-.26,1.79-.26,1.79a70.38,70.38,0,0,0-6.93,1.27l-.08,0-1-1.56-.09,1.83A52.53,52.53,0,0,0,36.93,129l-1.17-1.38c.09.6.3,1.78.3,1.78A40,40,0,0,0,30,133c-.45-.39-1.39-1.15-1.38-1.15.22.56.7,1.66.7,1.66-.6.45-1.16.91-1.73,1.41a31.34,31.34,0,0,0-3.29,3.33l-1.64-.76C23,138,23.69,139,23.69,139a29.47,29.47,0,0,0-3.59,5.84l-1.78-.29,1.42,1.1A31.7,31.7,0,0,0,18.53,149c-.29,1-.52,2-.72,3.08l-1.8.14c.55.25,1.66.72,1.66.72a38.2,38.2,0,0,0-.4,7.09c-.58.18-1.73.57-1.73.57l1.77.39a50.48,50.48,0,0,0,1.08,7.55Z"/><path class="d" d="M16.8,168.92c-1.5-7.29-1.75-13.11.16-20.34a30.53,30.53,0,0,1,9.52-14.88c5.87-4.91,11.38-7.25,18.74-9.15,9.83-2.23,18-2.3,28-1.38.23-2.2.68-6.6.68-6.6-10.83-1-19.63-.88-30.27,1.53-8.5,2.19-14.77,4.93-21.54,10.59a37.1,37.1,0,0,0-11.54,18.05c-2.23,8.42-2,15.13-.26,23.61Z"/><path class="e" d="M5.4,150.45,16,152.25l1.67-.13L3.9,149.62l1.5.83Zm-.61,10.68-1.64-.53,14-.51-1.59.53-10.79.51Zm3.68-21-1.22-1.21L20,144.78l-1.65-.28-9.88-4.37Zm5.82-9.45c-.29-.5-.85-1.5-.85-1.5l10.72,9-1.52-.7-8.35-6.84Zm7.89-7.47,6.42,8.67s.86.7,1.28,1.06l-8.21-11.37s.33,1.09.51,1.64Zm9.1-5.34c-.05-.57-.13-1.71-.13-1.71L36.86,129l-1.08-1.28-4.5-9.81Zm10.64-3.71c.07-.58.23-1.73.23-1.73l3.32,13.63c-.29-.49-.89-1.45-.89-1.45-.89-3.48-2.66-10.45-2.66-10.45Zm9.59-1.77c.11-.56.34-1.67.34-1.67.53,4.64,1.6,13.93,1.6,13.93-.21-.52-.64-1.55-.64-1.55-.43-3.57-1.3-10.71-1.3-10.71Zm10.27-.65c.18-.54.56-1.62.56-1.62,0,4.67,0,14,0,14l-.51-1.62-.1-10.78Zm11.07.47.76-1.56c-.44,4.65-1.33,14-1.33,14L71.87,123C72.2,119.37,72.85,112.21,72.85,112.21Z"/><path class="f" d="M89.33,191.37v10.36a6.61,6.61,0,0,0,6.59,6.59h19.16a6.61,6.61,0,0,0,6.58-6.59V191.37a6.28,6.28,0,0,0-6.26-6.26H95.59A6.28,6.28,0,0,0,89.33,191.37Z"/><path class="g" d="M91.71,201a5.42,5.42,0,0,0,5.06,3.53h15.69a5.41,5.41,0,0,0,5.4-5.39V185.53h-5.68s1.26,10.06-1.57,13.52S91.71,201,91.71,201Z"/><path class="h" d="M77.34,157.16V186.1a11.51,11.51,0,0,0,11.47,11.48h33.37a11.51,11.51,0,0,0,11.47-11.48V157.16Z"/><path class="a" d="M84.15,187.24a9,9,0,0,0,8.37,5.85h26a9,9,0,0,0,8.93-8.93V161.65H118s2.09,16.64-2.6,22.38S84.15,187.24,84.15,187.24Z"/><path class="f" d="M60.26,108.44H53.87a4.07,4.07,0,0,0-4.06,4.06v11.83a4.07,4.07,0,0,0,4.06,4.06h6.39a3.88,3.88,0,0,0,3.86-3.86V112.3A3.88,3.88,0,0,0,60.26,108.44Z"/><path class="g" d="M54.32,109.91A3.33,3.33,0,0,0,52.14,113v9.68A3.34,3.34,0,0,0,55.47,126h8.4v-3.5s-6.21.78-8.35-1S54.32,109.91,54.32,109.91Z"/><path class="a" d="M81.37,101H63.51a7.11,7.11,0,0,0-7.08,7.08v20.59a7.1,7.1,0,0,0,7.08,7.07H81.37Z"/><path class="h" d="M62.81,105.24a5.53,5.53,0,0,0-3.61,5.17v16a5.53,5.53,0,0,0,5.51,5.51H78.6v-5.79s-10.27,1.28-13.81-1.61S62.81,105.24,62.81,105.24Z"/><path class="a" d="M114.49,90.52V84.13a4.08,4.08,0,0,0-4.06-4.07H98.6a4.08,4.08,0,0,0-4.06,4.07v6.39a3.88,3.88,0,0,0,3.86,3.86h12.23A3.88,3.88,0,0,0,114.49,90.52Z"/><path class="h" d="M113,84.58a3.33,3.33,0,0,0-3.12-2.18h-9.68a3.34,3.34,0,0,0-3.33,3.33v8.4h3.5s-.78-6.21,1-8.35S113,84.58,113,84.58Z"/><path class="a" d="M121.89,111.63V93.77a7.11,7.11,0,0,0-7.08-7.08H94.22a7.11,7.11,0,0,0-7.08,7.08v17.86Z"/><path class="h" d="M117.69,93.07a5.54,5.54,0,0,0-5.17-3.61h-16A5.53,5.53,0,0,0,91,95v13.89h5.79S95.51,98.59,98.4,95.05,117.69,93.07,117.69,93.07Z"/><rect class="j" x="64.12" y="93.04" width="82.75" height="86.28" rx="8.85" ry="8.85"/><path class="k" d="M146.87,100.16v72a5.87,5.87,0,0,1-.71,2.79,10.75,10.75,0,0,1-3.45.56H77.65c-4.86,0-8.84-3.2-8.84-7.12v-72a5.86,5.86,0,0,1,.71-2.78A10.76,10.76,0,0,1,73,93H138C142.89,93,146.87,96.25,146.87,100.16Z"/><path class="l" d="M124.68,133.41c9.3,0,16.88-8,16.88-17.72S134,98,124.68,98s-16.87,8-16.87,17.72S115.39,133.41,124.68,133.41Z"/><path class="f" d="M124.68,98a16.88,16.88,0,1,0,16.88,16.88A16.88,16.88,0,0,0,124.68,98Z"/><path class="g" d="M123.8,101.53A14.49,14.49,0,1,0,138.29,116,14.49,14.49,0,0,0,123.8,101.53Z"/><path class="m" d="M124.68,100.35a14.5,14.5,0,1,0,14.5,14.5A14.5,14.5,0,0,0,124.68,100.35Z"/><ellipse class="n" cx="125.02" cy="115.97" rx="10.45" ry="9.85"/><path class="l" d="M124.68,105.58c-5.42,0-9.83,4.15-9.83,9.27s4.41,9.26,9.83,9.26a9.28,9.28,0,1,0,0-18.53Z"/><path class="l" d="M118.38,113.52a5.83,5.83,0,0,0-.16,1.33,6.48,6.48,0,0,0,12.92,0,5.89,5.89,0,0,0-2.91-5,6.36,6.36,0,0,1-6.3,4.68A6.74,6.74,0,0,1,118.38,113.52Z"/><path class="l" d="M122.72,107.21a2.42,2.42,0,1,0,2.59,2.41A2.51,2.51,0,0,0,122.72,107.21Z"/><rect class="o" x="125" y="163.31" width="16.56" height="5.26" rx="0.98" ry="0.98"/><rect class="p" x="126.14" y="164.18" width="14.28" height="3.53" rx="0.66" ry="0.66"/><path class="a" d="M129.4,164.18h10.36a.66.66,0,0,1,.66.65v2.22a.67.67,0,0,1-.66.66h-13a.67.67,0,0,1-.43-.16Z"/><path class="q" d="M141.29,166.94v.46a.87.87,0,0,1-.87.86H126.13a.87.87,0,0,1-.86-.86v-.46h.65v.22a.73.73,0,0,0,.73.72h13.26a.73.73,0,0,0,.73-.72v-.22Z"/><path class="r" d="M126,163.47h14.28a.87.87,0,0,1,.87.87v2.45h-.65v-2.22a.73.73,0,0,0-.73-.72H126.54a.73.73,0,0,0-.73.72v2.22h-.65v-2.45A.87.87,0,0,1,126,163.47Z"/><rect class="o" x="125" y="158.06" width="16.56" height="5.26" rx="0.98" ry="0.98"/><rect class="p" x="126.14" y="158.92" width="14.28" height="3.53" rx="0.66" ry="0.66"/><path class="a" d="M129.4,158.92h10.36a.67.67,0,0,1,.66.66v2.21a.67.67,0,0,1-.66.66h-13a.72.72,0,0,1-.43-.15Z"/><path class="q" d="M141.29,161.69v.45a.87.87,0,0,1-.87.87H126.13a.87.87,0,0,1-.86-.87v-.45h.65v.21a.73.73,0,0,0,.73.73h13.26a.73.73,0,0,0,.73-.73v-.21Z"/><path class="r" d="M126,158.21h14.28a.87.87,0,0,1,.87.87v2.45h-.65v-2.21a.73.73,0,0,0-.73-.73H126.54a.73.73,0,0,0-.73.73v2.21h-.65v-2.45A.87.87,0,0,1,126,158.21Z"/><rect class="o" x="125" y="152.91" width="16.56" height="5.26" rx="0.98" ry="0.98"/><rect class="p" x="126.14" y="153.77" width="14.28" height="3.53" rx="0.66" ry="0.66"/><path class="a" d="M129.4,153.77h10.36a.67.67,0,0,1,.66.66v2.22a.66.66,0,0,1-.66.65h-13a.66.66,0,0,1-.43-.15Z"/><path class="q" d="M141.29,156.54V157a.87.87,0,0,1-.87.87H126.13a.87.87,0,0,1-.86-.87v-.45h.65v.22a.73.73,0,0,0,.73.72h13.26a.73.73,0,0,0,.73-.72v-.22Z"/><path class="r" d="M126,153.07h14.28a.87.87,0,0,1,.87.86v2.46h-.65v-2.22a.73.73,0,0,0-.73-.72H126.54a.73.73,0,0,0-.73.72v2.22h-.65v-2.46A.87.87,0,0,1,126,153.07Z"/><rect class="o" x="125" y="147.77" width="16.56" height="5.26" rx="0.98" ry="0.98"/><rect class="p" x="126.14" y="148.63" width="14.28" height="3.53" rx="0.66" ry="0.66"/><path class="a" d="M129.4,148.63h10.36a.67.67,0,0,1,.66.66v2.21a.67.67,0,0,1-.66.66h-13a.67.67,0,0,1-.43-.16Z"/><path class="q" d="M141.29,151.4v.45a.87.87,0,0,1-.87.86H126.13a.87.87,0,0,1-.86-.86v-.45h.65v.21a.73.73,0,0,0,.73.73h13.26a.73.73,0,0,0,.73-.73v-.21Z"/><path class="r" d="M126,147.92h14.28a.87.87,0,0,1,.87.87v2.45h-.65V149a.73.73,0,0,0-.73-.73H126.54a.73.73,0,0,0-.73.73v2.21h-.65v-2.45A.87.87,0,0,1,126,147.92Z"/><rect class="o" x="125" y="142.62" width="16.56" height="5.26" rx="0.98" ry="0.98"/><rect class="p" x="126.14" y="143.48" width="14.28" height="3.53" rx="0.66" ry="0.66"/><path class="a" d="M129.4,143.48h10.36a.67.67,0,0,1,.66.66v2.22a.66.66,0,0,1-.66.65h-13a.66.66,0,0,1-.43-.15Z"/><path class="q" d="M141.29,146.25v.45a.87.87,0,0,1-.87.87H126.13a.87.87,0,0,1-.86-.87v-.45h.65v.22a.73.73,0,0,0,.73.72h13.26a.73.73,0,0,0,.73-.72v-.22Z"/><path class="r" d="M126,142.78h14.28a.87.87,0,0,1,.87.86v2.46h-.65v-2.22a.73.73,0,0,0-.73-.72H126.54a.73.73,0,0,0-.73.72v2.22h-.65v-2.46A.87.87,0,0,1,126,142.78Z"/><rect class="o" x="125" y="137.47" width="16.56" height="5.26" rx="0.98" ry="0.98"/><rect class="p" x="126.14" y="138.34" width="14.28" height="3.53" rx="0.66" ry="0.66"/><path class="a" d="M129.4,138.34h10.36a.66.66,0,0,1,.66.66v2.21a.67.67,0,0,1-.66.66h-13a.67.67,0,0,1-.43-.16Z"/><path class="q" d="M141.29,141.1v.46a.87.87,0,0,1-.87.86H126.13a.87.87,0,0,1-.86-.86v-.46h.65v.22a.73.73,0,0,0,.73.72h13.26a.73.73,0,0,0,.73-.72v-.22Z"/><path class="r" d="M126,137.63h14.28a.87.87,0,0,1,.87.87V141h-.65v-2.21a.73.73,0,0,0-.73-.73H126.54a.73.73,0,0,0-.73.73V141h-.65V138.5A.87.87,0,0,1,126,137.63Z"/><rect class="o" x="108.94" y="163.31" width="16.56" height="5.26" rx="0.98" ry="0.98"/><rect class="p" x="110.07" y="164.18" width="14.28" height="3.53" rx="0.66" ry="0.66"/><path class="a" d="M113.33,164.18H123.7a.66.66,0,0,1,.66.65v2.22a.67.67,0,0,1-.66.66h-13a.65.65,0,0,1-.42-.16Z"/><path class="q" d="M125.23,166.94v.46a.87.87,0,0,1-.87.86H110.07a.87.87,0,0,1-.86-.86v-.46h.65v.22a.72.72,0,0,0,.72.72h13.27a.72.72,0,0,0,.72-.72v-.22Z"/><path class="r" d="M110,163.47h14.29a.87.87,0,0,1,.87.87v2.45h-.66v-2.22a.72.72,0,0,0-.72-.72H110.47a.72.72,0,0,0-.72.72v2.22h-.65v-2.45A.87.87,0,0,1,110,163.47Z"/><rect class="o" x="108.94" y="158.06" width="16.56" height="5.26" rx="0.98" ry="0.98"/><rect class="p" x="110.07" y="158.92" width="14.28" height="3.53" rx="0.66" ry="0.66"/><path class="a" d="M113.33,158.92H123.7a.67.67,0,0,1,.66.66v2.21a.67.67,0,0,1-.66.66h-13a.69.69,0,0,1-.42-.15Z"/><path class="q" d="M125.23,161.69v.45a.87.87,0,0,1-.87.87H110.07a.87.87,0,0,1-.86-.87v-.45h.65v.21a.73.73,0,0,0,.72.73h13.27a.73.73,0,0,0,.72-.73v-.21Z"/><path class="r" d="M110,158.21h14.29a.87.87,0,0,1,.87.87v2.45h-.66v-2.21a.73.73,0,0,0-.72-.73H110.47a.73.73,0,0,0-.72.73v2.21h-.65v-2.45A.87.87,0,0,1,110,158.21Z"/><rect class="o" x="108.94" y="152.91" width="16.56" height="5.26" rx="0.98" ry="0.98"/><rect class="p" x="110.07" y="153.77" width="14.28" height="3.53" rx="0.66" ry="0.66"/><path class="a" d="M113.33,153.77H123.7a.67.67,0,0,1,.66.66v2.22a.66.66,0,0,1-.66.65h-13a.64.64,0,0,1-.42-.15Z"/><path class="q" d="M125.23,156.54V157a.87.87,0,0,1-.87.87H110.07a.87.87,0,0,1-.86-.87v-.45h.65v.22a.72.72,0,0,0,.72.72h13.27a.72.72,0,0,0,.72-.72v-.22Z"/><path class="r" d="M110,153.07h14.29a.87.87,0,0,1,.87.86v2.46h-.66v-2.22a.72.72,0,0,0-.72-.72H110.47a.72.72,0,0,0-.72.72v2.22h-.65v-2.46A.87.87,0,0,1,110,153.07Z"/><rect class="o" x="108.94" y="147.77" width="16.56" height="5.26" rx="0.98" ry="0.98"/><rect class="p" x="110.07" y="148.63" width="14.28" height="3.53" rx="0.66" ry="0.66"/><path class="a" d="M113.33,148.63H123.7a.67.67,0,0,1,.66.66v2.21a.67.67,0,0,1-.66.66h-13a.65.65,0,0,1-.42-.16Z"/><path class="q" d="M125.23,151.4v.45a.87.87,0,0,1-.87.86H110.07a.87.87,0,0,1-.86-.86v-.45h.65v.21a.73.73,0,0,0,.72.73h13.27a.73.73,0,0,0,.72-.73v-.21Z"/><path class="r" d="M110,147.92h14.29a.87.87,0,0,1,.87.87v2.45h-.66V149a.73.73,0,0,0-.72-.73H110.47a.73.73,0,0,0-.72.73v2.21h-.65v-2.45A.87.87,0,0,1,110,147.92Z"/><rect class="o" x="108.94" y="142.62" width="16.56" height="5.26" rx="0.98" ry="0.98"/><rect class="p" x="110.07" y="143.48" width="14.28" height="3.53" rx="0.66" ry="0.66"/><path class="a" d="M113.33,143.48H123.7a.67.67,0,0,1,.66.66v2.22a.66.66,0,0,1-.66.65h-13a.64.64,0,0,1-.42-.15Z"/><path class="q" d="M125.23,146.25v.45a.87.87,0,0,1-.87.87H110.07a.87.87,0,0,1-.86-.87v-.45h.65v.22a.73.73,0,0,0,.72.72h13.27a.72.72,0,0,0,.72-.72v-.22Z"/><path class="r" d="M110,142.78h14.29a.87.87,0,0,1,.87.86v2.46h-.66v-2.22a.72.72,0,0,0-.72-.72H110.47a.72.72,0,0,0-.72.72v2.22h-.65v-2.46A.87.87,0,0,1,110,142.78Z"/><rect class="o" x="108.94" y="137.47" width="16.56" height="5.26" rx="0.98" ry="0.98"/><rect class="p" x="110.07" y="138.34" width="14.28" height="3.53" rx="0.66" ry="0.66"/><path class="a" d="M113.33,138.34H123.7a.66.66,0,0,1,.66.66v2.21a.67.67,0,0,1-.66.66h-13a.65.65,0,0,1-.42-.16Z"/><path class="q" d="M125.23,141.1v.46a.87.87,0,0,1-.87.86H110.07a.87.87,0,0,1-.86-.86v-.46h.65v.22a.72.72,0,0,0,.72.72h13.27a.72.72,0,0,0,.72-.72v-.22Z"/><path class="r" d="M110,137.63h14.29a.87.87,0,0,1,.87.87V141h-.66v-2.21a.73.73,0,0,0-.72-.73H110.47a.73.73,0,0,0-.72.73V141h-.65V138.5A.87.87,0,0,1,110,137.63Z"/><circle class="s" cx="12.01" cy="171.62" r="7.31" transform="translate(-159.88 178.86) rotate(-88.41)"/><circle class="c" cx="12.01" cy="171.62" r="4.41"/><path class="l" d="M92.07,110.86a4.79,4.79,0,1,0-4.55-4.78A4.68,4.68,0,0,0,92.07,110.86Z"/><path class="f" d="M92.07,101.3a4.56,4.56,0,1,0,4.56,4.55A4.55,4.55,0,0,0,92.07,101.3Z"/><path class="g" d="M91.84,102.26a3.91,3.91,0,1,0,3.91,3.91A3.92,3.92,0,0,0,91.84,102.26Z"/><path class="m" d="M92.07,101.94A3.91,3.91,0,1,0,96,105.85,3.91,3.91,0,0,0,92.07,101.94Z"/><path class="t" d="M92.16,108.81a2.66,2.66,0,1,0-2.81-2.65A2.74,2.74,0,0,0,92.16,108.81Z"/><path class="l" d="M92.07,103.35a2.5,2.5,0,1,0,2.66,2.5A2.58,2.58,0,0,0,92.07,103.35Z"/><path class="l" d="M90.37,105.5a2,2,0,0,0,0,.35,1.75,1.75,0,0,0,3.49,0A1.58,1.58,0,0,0,93,104.5a1.72,1.72,0,0,1-1.7,1.26A1.94,1.94,0,0,1,90.37,105.5Z"/><path class="l" d="M91.54,103.79a.68.68,0,0,0-.7.65.7.7,0,0,0,1.4,0A.67.67,0,0,0,91.54,103.79Z"/><path class="l" d="M81,110.86a4.79,4.79,0,1,0-4.56-4.78A4.68,4.68,0,0,0,81,110.86Z"/><path class="f" d="M81,101.3a4.56,4.56,0,1,0,4.55,4.55A4.56,4.56,0,0,0,81,101.3Z"/><path class="g" d="M80.72,102.26a3.91,3.91,0,1,0,3.91,3.91A3.91,3.91,0,0,0,80.72,102.26Z"/><path class="m" d="M81,101.94a3.91,3.91,0,1,0,3.91,3.91A3.91,3.91,0,0,0,81,101.94Z"/><path class="t" d="M81.05,108.81a2.66,2.66,0,1,0-2.82-2.65A2.75,2.75,0,0,0,81.05,108.81Z"/><path class="l" d="M81,103.35a2.5,2.5,0,1,0,2.65,2.5A2.58,2.58,0,0,0,81,103.35Z"/><path class="l" d="M79.26,105.5a1.34,1.34,0,0,0-.05.35,1.75,1.75,0,0,0,3.49,0,1.6,1.6,0,0,0-.78-1.35,1.74,1.74,0,0,1-1.71,1.26A1.87,1.87,0,0,1,79.26,105.5Z"/><path class="l" d="M80.43,103.79a.67.67,0,0,0-.7.65.7.7,0,1,0,.7-.65Z"/><polygon class="h" points="93.72 129.93 82.18 131.07 73.93 151.62 86.73 149.23 76.17 171.9 98.85 142.49 85.35 144.01 93.72 129.93"/><rect class="e" x="115.82" y="18.7" width="32.86" height="2.07" transform="translate(64.62 135.09) rotate(-68.1)"/><rect class="c" x="116.26" y="19" width="32.22" height="0.89" transform="translate(64.97 135.01) rotate(-68.11)"/><path class="l" d="M140.1.22a2.77,2.77,0,0,0-3.65,1.43,2.77,2.77,0,0,0,1.64,3.55,2.77,2.77,0,0,0,3.65-1.43A2.77,2.77,0,0,0,140.1.22Z"/><path class="l" d="M137.54,1.67a2.21,2.21,0,0,0-.18.34,1.8,1.8,0,0,0,1.09,2.31,1.8,1.8,0,0,0,2.38-.91,1.7,1.7,0,0,0-.24-1.67,1.85,1.85,0,0,1-2.2.58A2,2,0,0,1,137.54,1.67Z"/><path class="l" d="M139.39.44a.74.74,0,0,0-1,.37.73.73,0,0,0,.44.93.73.73,0,0,0,1-.37A.73.73,0,0,0,139.39.44Z"/><rect class="e" x="74.89" y="3.31" width="2.07" height="32.86" transform="translate(-1.88 29.74) rotate(-21.9)"/><rect class="c" x="75.36" y="3.33" width="0.89" height="32.22" transform="translate(-1.78 29.67) rotate(-21.89)"/><path class="l" d="M68.08.22a2.76,2.76,0,0,1,3.64,1.43A2.76,2.76,0,0,1,70.08,5.2a2.76,2.76,0,0,1-3.64-1.43A2.76,2.76,0,0,1,68.08.22Z"/><path class="l" d="M70.63,1.67a1.63,1.63,0,0,1,.19.34,1.8,1.8,0,0,1-1.09,2.31,1.81,1.81,0,0,1-2.39-.91,1.75,1.75,0,0,1,.24-1.67,1.87,1.87,0,0,0,2.21.58A1.89,1.89,0,0,0,70.63,1.67Z"/><path class="l" d="M68.78.44a.73.73,0,0,1,1,.37.72.72,0,0,1-.43.93.72.72,0,0,1-1-.37A.72.72,0,0,1,68.78.44Z"/><path class="f" d="M60.94,49H57a2.48,2.48,0,0,0-2.48,2.48v7.21A2.48,2.48,0,0,0,57,61.16h3.9a2.36,2.36,0,0,0,2.35-2.36V51.34A2.36,2.36,0,0,0,60.94,49Z"/><path class="g" d="M57.31,49.88A2.05,2.05,0,0,0,56,51.79V57.7a2,2,0,0,0,2,2h5.13V57.59s-3.79.48-5.1-.59S57.31,49.88,57.31,49.88Z"/><path class="g" d="M75.17,44.47H64.28A4.33,4.33,0,0,0,60,48.79V61.36a4.33,4.33,0,0,0,4.32,4.32H75.17Z"/><path class="a" d="M63.85,47a3.37,3.37,0,0,0-2.2,3.16V60A3.37,3.37,0,0,0,65,63.32h8.47V59.79s-6.26.78-8.42-1S63.85,47,63.85,47Z"/><path class="f" d="M150.06,49H154a2.49,2.49,0,0,1,2.48,2.48v7.21A2.49,2.49,0,0,1,154,61.16h-3.9a2.36,2.36,0,0,1-2.36-2.36V51.34A2.36,2.36,0,0,1,150.06,49Z"/><path class="g" d="M153.68,49.88A2,2,0,0,1,155,51.79V57.7a2,2,0,0,1-2,2h-5.12V57.59s3.78.48,5.09-.59S153.68,49.88,153.68,49.88Z"/><path class="g" d="M135.82,44.47h10.9A4.33,4.33,0,0,1,151,48.79V61.36a4.33,4.33,0,0,1-4.32,4.32h-10.9Z"/><path class="a" d="M147.15,47a3.38,3.38,0,0,1,2.2,3.16V60A3.37,3.37,0,0,1,146,63.32h-8.48V59.79s6.27.78,8.43-1S147.15,47,147.15,47Z"/><polygon class="k" points="76.02 191.89 65.71 225.6 144.23 225.43 133.24 191.88 76.02 191.89"/><path class="u" d="M34.45,223.2H176.54a30.65,30.65,0,0,1,30.56,30.55v1.13a31.77,31.77,0,0,1-31.68,31.67H35.58A31.76,31.76,0,0,1,3.9,254.88v-1.13A30.64,30.64,0,0,1,34.45,223.2Z"/><path class="t" d="M34.45,228.87A25,25,0,0,0,9.57,253.75v1.13a26.1,26.1,0,0,0,26,26H175.42a26.11,26.11,0,0,0,26-26v-1.13a25,25,0,0,0-24.89-24.88Z"/><path class="u" d="M36.45,236.63a21.12,21.12,0,1,1-21.12,21.12,21.13,21.13,0,0,1,21.12-21.12Zm144.24,0a21.12,21.12,0,1,1-21.12,21.12,21.12,21.12,0,0,1,21.12-21.12Zm-48.08,0a21.12,21.12,0,1,1-21.12,21.12,21.13,21.13,0,0,1,21.12-21.12Zm-48.08,0a21.12,21.12,0,1,1-21.12,21.12A21.13,21.13,0,0,1,84.53,236.63Z"/><path class="g" d="M33.38,276a21.12,21.12,0,1,0-21.12-21.12A21.16,21.16,0,0,0,33.38,276Z"/><path class="g" d="M81.46,276a21.12,21.12,0,1,0-21.12-21.12A21.16,21.16,0,0,0,81.46,276Z"/><path class="g" d="M129.54,276a21.12,21.12,0,1,0-21.12-21.12A21.16,21.16,0,0,0,129.54,276Z"/><path class="g" d="M177.61,276a21.12,21.12,0,1,0-21.11-21.12A21.16,21.16,0,0,0,177.61,276Z"/><path class="b" d="M33.38,268.26A13.39,13.39,0,1,0,20,254.88,13.41,13.41,0,0,0,33.38,268.26Z"/><path class="b" d="M81.46,268.26a13.39,13.39,0,1,0-13.38-13.38A13.41,13.41,0,0,0,81.46,268.26Z"/><circle class="v" cx="129.54" cy="254.88" r="13.38"/><path class="b" d="M177.61,268.26a13.39,13.39,0,1,0-13.38-13.38A13.41,13.41,0,0,0,177.61,268.26Z"/><path class="h" d="M32.55,221.68H36.4l.77,3H31.78l.77-3Zm-7.72,1.42,1.87-.46,1.86-.45L30,225l-2.62.63-2.62.64,0-3.14Zm15.22-1.42h3.84c.26,1,.52,2,.77,3H39.27l.78-3Zm7.49,0h3.84l.78,3H46.77c.26-1,.51-2,.77-3Zm7.49,0h3.85c.25,1,.51,2,.77,3H54.26c.26-1,.52-2,.77-3Zm7.5,0h3.84l.78,3h-5.4l.78-3Zm7.49,0h3.84l.78,3H69.25c.25-1,.51-2,.77-3Zm7.49,0h3.84l.78,3H76.74c.26-1,.52-2,.77-3Zm7.5,0h3.84l.78,3h-5.4l.78-3Zm7.49,0h3.84l.78,3.05H91.73c.25-1,.51-2,.77-3Zm7.49,0h3.84l.78,3.05H99.22l.77-3Zm7.49,0h3.85l.78,3.05h-5.4c.26-1,.52-2,.77-3Zm7.5,0h3.84l.78,3.05h-5.39c.25-1,.51-2,.77-3Zm7.49,0h3.84l.78,3.05H121.7c.26-1,.51-2,.77-3Zm7.49,0h3.84c.27,1,.53,2,.79,3.05H129.2c.25-1,.51-2,.76-3Zm7.5,0h3.84l.78,3.05h-5.39c.26-1,.51-2,.77-3Zm7.49,0h3.84l.78,3.05h-5.39c.26-1,.51-2,.77-3Zm7.49,0h3.85c.25,1,.52,2,.78,3.05h-5.39c.25-1,.51-2,.76-3Zm7.5,0h3.84l.78,3.05h-5.39c.26-1,.51-2,.77-3Zm7.49,0h3.84l.78,3.05h-5.39c.26-1,.51-2,.77-3Zm7.53,0,1.92.05,1.92,0c.24,1,.47,2,.71,3.06l-2.7-.06-2.69-.06.84-3Zm7.86.56,1.85.52,1.85.52c0,1-.06,2.1-.08,3.15l-2.6-.73-2.59-.73,1.57-2.73Zm7.47,2.49,1.67.95,1.66,1-.84,3-2.34-1.33L188.1,227l2.19-2.26Zm6.62,4.22,1.4,1.32,1.39,1.32-1.53,2.75-2-1.86-2-1.85,2.65-1.68Zm5.42,5.68c.35.54.7,1.08,1,1.62l1,1.61-2.14,2.31c-.49-.76-1-1.51-1.46-2.27l-1.47-2.26,3-1Zm3.9,6.83c.2.61.41,1.21.62,1.82l.63,1.81-2.63,1.73-.88-2.55-.88-2.55,3.14-.26Zm2.12,7.58c.06.64.11,1.28.16,1.91s.1,1.28.16,1.92l-3,1c-.07-.9-.15-1.8-.22-2.69s-.14-1.79-.22-2.69l3.1.53Zm.3,7.8-.24,1.9c-.07.64-.15,1.27-.23,1.91l-3.12.4.33-2.68.33-2.68,2.93,1.15Zm-1.36,7.75c-.24.6-.47,1.2-.7,1.79s-.47,1.2-.7,1.79l-3.12-.38,1-2.52c.33-.83.65-1.67,1-2.51l2.56,1.83Zm-3.21,7.09-1,1.62-1,1.62-3-1,1.45-2.27,1.44-2.28,2.16,2.29Zm-4.74,6.25L198,279.22l-1.39,1.33-2.67-1.65,1.94-1.87,1.95-1.88,1.55,2.74Zm-6.06,5-1.66,1-1.66,1-2.2-2.24,2.33-1.36,2.32-1.36c.3,1,.58,2,.87,3Zm-7.06,3.43-1.84.54-1.85.54-1.59-2.71,2.58-.75,2.59-.76c0,1,.07,2.1.11,3.14ZM178.53,288l-1.92.06-1.92.06-.87-3,2.7-.08,2.69-.09c-.23,1-.45,2.05-.68,3.07Zm-7.53.08h-3.84c-.27-1-.53-2-.79-3l2.69,0h2.7c-.25,1-.51,2-.76,3.05Zm-7.49,0h-3.84c-.27-1-.53-2-.8-3l2.7,0h2.69l-.75,3.05Zm-7.49,0h-3.85l-.79-3,2.7,0h2.69l-.75,3.05Zm-7.5,0h-3.84c-.26-1-.53-2-.8-3l2.7,0h2.7c-.25,1-.51,2-.76,3.05Zm-7.49,0h-3.84c-.27-1-.53-2-.8-3l2.7,0h2.69l-.75,3.05Zm-7.49,0H129.7c-.27-1-.54-2-.8-3l2.69,0h2.7l-.75,3.05Zm-7.5,0H122.2c-.26-1-.53-2-.8-3l2.7,0h2.7c-.26,1-.51,2-.76,3.05Zm-7.49,0h-3.84c-.27-1-.53-2-.8-3l2.7,0,2.69,0-.75,3.06Zm-7.49,0h-1.92l-1.93,0c-.26-1-.53-2-.79-3.05l2.69,0,2.7,0-.75,3.06Zm-7.5,0h-1.92l-1.92,0c-.26-1-.53-2-.8-3.05l2.7,0,2.7,0c-.26,1-.51,2-.76,3.06Zm-7.49,0H94.15l-1.92,0-.8-3.05,2.7,0,2.69,0-.75,3.06Zm-7.49,0H86.66l-1.92,0c-.27-1-.54-2-.8-3.05l2.69,0,2.7,0-.75,3.06Zm-7.5,0-1.92,0-1.92,0c-.26-1-.53-2-.8-3.05l2.7,0,2.7,0c-.25,1-.51,2-.76,3.05Zm-7.49,0-1.92,0-1.92,0-.8-3.05,2.7,0,2.69,0-.75,3.05Zm-7.49,0-1.92,0-1.92,0c-.27-1-.54-2-.8-3.05l2.69,0,2.7,0-.75,3.05Zm-7.49,0-1.92,0-1.93,0c-.26-1-.53-2-.8-3l2.7,0,2.7,0-.75,3.05Zm-7.5,0-1.92,0-1.92,0c-.27-1-.53-2-.8-3l2.7,0,2.69,0-.75,3.05Zm-7.49,0-1.92,0-1.92,0c-.27-1-.54-2-.8-3l2.69,0,2.7,0-.75,3.05Zm-7.53,0-1.92,0-1.92,0c-.24-1-.49-2-.73-3.06l2.7.05,2.69,0-.82,3Zm-7.82-.8-1.86-.51-1.85-.51.06-3.14,2.6.71,2.6.72-1.55,2.73Zm-7.41-2.63-1.67-.94-1.67-.95c.27-1,.55-2,.82-3l2.35,1.33L23,282.38c-.73.75-1.45,1.51-2.18,2.27Zm-6.57-4.3L12.89,279l-1.4-1.31L13,275l2,1.84,2,1.85-2.66,1.69Zm-5.39-5.7L7.85,273c-.35-.53-.7-1.07-1.06-1.6l2.13-2.32c.49.75,1,1.5,1.48,2.25s1,1.5,1.48,2.25l-3,1ZM5,267.84,4.34,266c-.21-.61-.43-1.21-.64-1.81l2.62-1.75c.3.85.6,1.7.89,2.55l.9,2.54L5,267.84Zm-2.11-7.49-.27-1.9c-.09-.64-.17-1.27-.26-1.91l2.91-1.18c.13.89.25,1.78.37,2.67s.25,1.78.37,2.67l-3.12-.35Zm-.44-7.78c0-.64.09-1.28.13-1.92s.08-1.27.13-1.91l3.09-.58-.18,2.7-.18,2.69-3-1Zm1.25-7.76.6-1.82.6-1.83,3.14.22-.84,2.56-.84,2.56-2.66-1.69Zm3.12-7.2,1-1.62,1-1.63,3,1-1.43,2.29c-.48.76-1,1.52-1.43,2.28l-2.17-2.28Zm4.75-6.34L13,230l1.44-1.27,2.6,1.76-2,1.79-2,1.79-1.44-2.8Zm6.14-4.89,1.7-.9,1.7-.9,2.11,2.34-2.39,1.26-2.38,1.25C18.17,228.41,17.93,227.4,17.68,226.38Z"/><polygon class="k" points="82.13 195.03 73.99 218.95 135.95 218.83 127.28 195.03 82.13 195.03"/><path class="f" d="M154,77.56h4.44a2.84,2.84,0,0,0,2.83-2.83V66.52a2.83,2.83,0,0,0-2.83-2.83H154a2.7,2.7,0,0,0-2.68,2.69v8.49A2.7,2.7,0,0,0,154,77.56Z"/><path class="g" d="M158.09,76.53a2.31,2.31,0,0,0,1.52-2.17V67.64a2.33,2.33,0,0,0-2.32-2.32h-5.83v2.44s4.31-.54,5.8.67S158.09,76.53,158.09,76.53Z"/><path class="g" d="M137.76,82.69h12.4a4.93,4.93,0,0,0,4.92-4.91V63.47a4.94,4.94,0,0,0-4.92-4.92h-12.4Z"/><path class="a" d="M150.65,79.78a3.84,3.84,0,0,0,2.51-3.59V65.06a3.84,3.84,0,0,0-3.83-3.83h-9.65v4s7.13-.9,9.59,1.12S150.65,79.78,150.65,79.78Z"/><path class="f" d="M53.25,77.56H48.81A2.84,2.84,0,0,1,46,74.73V66.52a2.83,2.83,0,0,1,2.83-2.83h4.44a2.69,2.69,0,0,1,2.68,2.69v8.49A2.69,2.69,0,0,1,53.25,77.56Z"/><path class="g" d="M49.12,76.53a2.31,2.31,0,0,1-1.51-2.17V67.64a2.32,2.32,0,0,1,2.31-2.32h5.84v2.44s-4.32-.54-5.8.67S49.12,76.53,49.12,76.53Z"/><path class="g" d="M69.46,82.69H57.05a4.93,4.93,0,0,1-4.92-4.91V63.47a4.94,4.94,0,0,1,4.92-4.92H69.46Z"/><path class="a" d="M56.56,79.78a3.83,3.83,0,0,1-2.5-3.59V65.06a3.83,3.83,0,0,1,3.82-3.83h9.65v4s-7.13-.9-9.59,1.12S56.56,79.78,56.56,79.78Z"/><path class="k" d="M147.55,50.88a32,32,0,0,1,.52,5.74V88.78H59.14V56.62c0-.48,0-.95,0-1.43s0-.86,0-1.3C59.14,34.63,79,19,103.43,19,126.6,19,145.62,33,147.55,50.88Z"/><path class="k" d="M147.55,50.88a32,32,0,0,1,.52,5.74V88.78H103.43V19C126.6,19,145.62,33,147.55,50.88Z"/><path class="l" d="M102.4,85.66c15.62,0,28.36-13.38,28.36-29.79S118,26.09,102.4,26.09,74,39.47,74,55.87,86.78,85.66,102.4,85.66Z"/><circle class="o" cx="102.4" cy="54.45" r="28.36"/><path class="g" d="M100.92,80.79A24.36,24.36,0,1,0,76.55,56.43,24.41,24.41,0,0,0,100.92,80.79Z"/><path class="m" d="M102.4,78.81A24.36,24.36,0,1,0,78,54.45,24.4,24.4,0,0,0,102.4,78.81Z"/><path class="t" d="M103,72.9c9.67,0,17.56-7.44,17.56-16.56S112.64,39.78,103,39.78,85.4,47.22,85.4,56.34,93.29,72.9,103,72.9Z"/><ellipse class="w" cx="102.4" cy="54.45" rx="16.53" ry="15.58"/><path class="l" d="M91.8,52.22a9.72,9.72,0,0,0-.26,2.23c0,5.58,4.86,10.1,10.86,10.1s10.86-4.52,10.86-10.1A9.93,9.93,0,0,0,108.37,46a10.72,10.72,0,0,1-10.6,7.87A11.43,11.43,0,0,1,91.8,52.22Z"/><path class="x" d="M99.09,49.73a4.07,4.07,0,1,0-4.36-4.06A4.23,4.23,0,0,0,99.09,49.73Z"/></svg>