<svg xmlns="http://www.w3.org/2000/svg" width="250.67" height="101.53" viewBox="0 0 250.67 101.53"><defs><style>.a{fill:#58595b;}.a,.c,.d,.e,.f,.g,.h,.i,.j,.k{fill-rule:evenodd;}.b{fill:#bbbdbf;}.c{fill:#33b39c;}.d{fill:#2c9f9f;}.e{fill:#e6e7e8;}.f{fill:#808184;}.g{fill:#c0c1c3;}.h{fill:#9c9ea1;}.i{fill:#454547;}.j{fill:#ce3e32;}.k{fill:#ef503d;}</style></defs><title>spaceship</title><path class="a" d="M214,96.37c-3.79,0-6.86,1.8-6.86,4a2.44,2.44,0,0,0,.29,1.14H220.6a2.56,2.56,0,0,0,.28-1.14C220.88,98.17,217.81,96.37,214,96.37Z"/><ellipse class="b" cx="125.34" cy="40.78" rx="69.56" ry="40.78"/><path class="c" d="M192.7,51c-7.74,17.57-35,30.56-67.36,30.56S65.71,68.57,58,51Z"/><path class="d" d="M176.94,54.57C171,68,150.16,78,125.34,78S79.66,68,73.73,54.57Z"/><path class="e" d="M125.34,4.92c33.78,0,61.16,16.06,61.16,35.86A22.47,22.47,0,0,1,184,51H66.69a22.47,22.47,0,0,1-2.52-10.22C64.17,21,91.55,4.92,125.34,4.92Z"/><path class="f" d="M125.34,33.19c69.22,0,125.33,8,125.33,17.81S194.56,68.8,125.34,68.8,0,60.83,0,51,56.11,33.19,125.34,33.19Z"/><path class="a" d="M246.27,51c0,7.93-54.14,14.37-120.93,14.37S4.4,58.93,4.4,51Z"/><path class="f" d="M102,57.68a8.58,8.58,0,1,0-8.16-8.56A8.37,8.37,0,0,0,102,57.68Z"/><path class="g" d="M102,40.55a8.16,8.16,0,1,0,8.15,8.16A8.16,8.16,0,0,0,102,40.55Z"/><path class="h" d="M101.56,56.28a7,7,0,1,0-7-7A7,7,0,0,0,101.56,56.28Z"/><path class="a" d="M102,55.71a7,7,0,1,0-7-7A7,7,0,0,0,102,55.71Z"/><path class="i" d="M102.15,44.49a4.77,4.77,0,1,0,5,4.76A4.91,4.91,0,0,0,102.15,44.49Z"/><path class="j" d="M102,44.23a4.49,4.49,0,1,0,4.75,4.48A4.62,4.62,0,0,0,102,44.23Z"/><path class="k" d="M98.94,48.07a2.67,2.67,0,0,0-.08.64,3.13,3.13,0,0,0,6.25,0,2.85,2.85,0,0,0-1.41-2.43,3.07,3.07,0,0,1-3,2.26A3.27,3.27,0,0,1,98.94,48.07Z"/><path class="k" d="M101,45a1.17,1.17,0,1,0,1.26,1.17A1.22,1.22,0,0,0,101,45Z"/><path class="f" d="M122,57.68a8.58,8.58,0,1,0-8.16-8.56A8.37,8.37,0,0,0,122,57.68Z"/><path class="g" d="M122,40.55a8.16,8.16,0,1,0,8.15,8.16A8.16,8.16,0,0,0,122,40.55Z"/><path class="h" d="M121.53,56.28a7,7,0,1,0-7-7A7,7,0,0,0,121.53,56.28Z"/><path class="a" d="M122,55.71a7,7,0,1,0-7-7A7,7,0,0,0,122,55.71Z"/><path class="i" d="M122.12,44.49a4.77,4.77,0,1,0,5,4.76A4.91,4.91,0,0,0,122.12,44.49Z"/><path class="j" d="M122,44.23a4.49,4.49,0,1,0,4.75,4.48A4.62,4.62,0,0,0,122,44.23Z"/><path class="k" d="M118.91,48.07a2.67,2.67,0,0,0-.08.64,3.13,3.13,0,0,0,6.25,0,2.85,2.85,0,0,0-1.41-2.43,3.07,3.07,0,0,1-3,2.26A3.28,3.28,0,0,1,118.91,48.07Z"/><path class="k" d="M121,45a1.17,1.17,0,1,0,1.25,1.17A1.22,1.22,0,0,0,121,45Z"/><path class="f" d="M141.93,57.68a8.58,8.58,0,1,0-8.16-8.56A8.38,8.38,0,0,0,141.93,57.68Z"/><path class="g" d="M141.93,40.55a8.16,8.16,0,1,0,8.16,8.16A8.16,8.16,0,0,0,141.93,40.55Z"/><path class="h" d="M141.5,56.28a7,7,0,1,0-7-7A7,7,0,0,0,141.5,56.28Z"/><path class="a" d="M141.93,55.71a7,7,0,1,0-7-7A7,7,0,0,0,141.93,55.71Z"/><path class="i" d="M142.09,44.49a4.77,4.77,0,1,0,5,4.76A4.91,4.91,0,0,0,142.09,44.49Z"/><path class="j" d="M141.93,44.23a4.49,4.49,0,1,0,4.75,4.48A4.61,4.61,0,0,0,141.93,44.23Z"/><path class="k" d="M138.88,48.07a2.67,2.67,0,0,0-.08.64,3.13,3.13,0,0,0,6.25,0,2.85,2.85,0,0,0-1.41-2.43,3.06,3.06,0,0,1-3,2.26A3.28,3.28,0,0,1,138.88,48.07Z"/><path class="k" d="M141,45a1.17,1.17,0,1,0,1.25,1.17A1.22,1.22,0,0,0,141,45Z"/><polygon class="a" points="46.05 63.97 34.98 98.95 37.37 98.95 51.77 64.77 46.05 63.97"/><polygon class="f" points="46.38 66.88 37.71 94.71 49.26 67.28 46.38 66.88"/><path class="a" d="M36.65,96.37c3.79,0,6.86,1.8,6.86,4a2.44,2.44,0,0,1-.29,1.14H30.07a2.56,2.56,0,0,1-.28-1.14C29.79,98.17,32.86,96.37,36.65,96.37Z"/><path class="f" d="M36.65,97.59c2.72,0,4.92,1,4.92,2.12a1.08,1.08,0,0,1-.2.6H31.92a1.08,1.08,0,0,1-.2-.6C31.72,98.54,33.93,97.59,36.65,97.59Z"/><polygon class="a" points="204.62 63.97 215.69 98.95 213.29 98.95 198.9 64.77 204.62 63.97"/><polygon class="f" points="204.29 66.88 212.96 94.71 201.41 67.28 204.29 66.88"/><path class="f" d="M214,97.59c-2.72,0-4.92,1-4.92,2.12a1.08,1.08,0,0,0,.2.6h9.44a1,1,0,0,0,.21-.6C219,98.54,216.74,97.59,214,97.59Z"/></svg>